<svg width="190" height="64" viewBox="0 0 190 64" fill="none" xmlns="http://www.w3.org/2000/svg">
<path fill-rule="evenodd" clip-rule="evenodd" d="M56.1778 10.384C56.6044 10.2418 57.0311 9.95736 57.3156 9.53069C57.6 9.10403 57.7422 8.81958 57.7422 8.25069C57.7422 7.39736 57.4578 6.68625 56.8889 6.25958C56.32 5.83292 55.4667 5.54847 54.4711 5.54847H51.2V15.6462H54.7556C55.8933 15.6462 56.6044 15.3617 57.3156 14.9351C57.8844 14.3662 58.1689 13.6551 58.1689 12.8018C58.1689 12.2329 58.0267 11.664 57.7422 11.2374C57.1733 10.8107 56.7467 10.5262 56.1778 10.384ZM52.48 6.68625H54.4711C55.1822 6.68625 55.6089 6.82847 55.8933 7.11292C56.1778 7.39736 56.32 7.82403 56.32 8.39292C56.32 8.96181 56.1778 9.24625 55.7511 9.53069C55.4667 9.81514 54.8978 9.95736 54.3289 9.95736H52.3378V6.68625H52.48ZM56.1778 14.0818C55.7511 14.3662 55.3244 14.5084 54.7556 14.5084H52.6222V10.9529H54.8978C56.1778 10.9529 56.8889 11.5218 56.8889 12.8018C56.6044 13.3707 56.4622 13.7974 56.1778 14.0818ZM61.5822 10.9529H65.9911V9.81514H61.5822V6.68625H66.56V5.54847H60.16V15.6462H66.56V14.5084H61.44V10.9529H61.5822ZM73.9556 10.8107C73.5289 10.5262 72.8178 10.2418 71.9644 10.0996C71.1111 9.81514 70.5422 9.67292 70.1156 9.24625C69.8311 8.81958 69.6889 8.53514 69.6889 8.10847C69.6889 7.53958 69.8311 7.25514 70.2578 6.97069C70.6844 6.68625 71.1111 6.54403 71.8222 6.54403C72.5333 6.54403 73.1022 6.68625 73.5289 7.11292C73.9556 7.39736 74.0978 7.96625 74.0978 8.53514H75.3778C75.3778 7.96625 75.2356 7.39736 74.9511 6.97069C74.6667 6.54403 74.24 6.11736 73.6711 5.83292C73.1022 5.54847 72.5333 5.40625 71.8222 5.40625C70.8267 5.40625 69.9733 5.69069 69.4044 6.11736C68.6933 6.68625 68.2667 7.39736 68.2667 8.10847C68.2667 8.81958 68.5511 9.38847 68.9778 9.81514C69.5467 10.2418 70.4 10.6685 71.5378 11.0951C72.5333 11.3796 73.1022 11.664 73.5289 11.9485C73.9556 12.2329 73.9556 12.6596 73.9556 13.0863C73.9556 13.5129 73.8133 13.9396 73.3867 14.224C72.96 14.5084 72.5333 14.6506 71.8222 14.6506C71.1111 14.6506 70.4 14.5084 69.9733 14.0818C69.5467 13.7974 69.2622 13.2285 69.2622 12.6596H67.9822C67.9822 13.2285 68.1244 13.7974 68.4089 14.224C68.6933 14.6506 69.2622 15.0773 69.8311 15.3617C70.4 15.6462 71.1111 15.7884 71.8222 15.7884C72.96 15.7884 73.8133 15.504 74.3822 15.0773C74.9511 14.6506 75.3778 13.9396 75.3778 13.0863C75.3778 12.5174 75.2356 12.0907 75.0933 11.8063C74.8089 11.3796 74.3822 11.0951 73.9556 10.8107ZM76.5156 6.68625H79.7867V15.6462H81.0667V6.68625H84.3378V5.54847H76.5156V6.68625ZM91.3067 10.8107C90.88 10.5262 90.1689 10.2418 89.3156 10.0996C88.4622 9.81514 87.8933 9.67292 87.4667 9.24625C87.1822 8.96181 86.8978 8.67736 86.8978 8.25069C86.8978 7.68181 87.04 7.39736 87.4667 7.11292C87.8933 6.82847 88.32 6.68625 89.0311 6.68625C89.7422 6.68625 90.3111 6.82847 90.7378 7.25514C91.1644 7.53958 91.3067 8.10847 91.3067 8.67736H92.5867C92.5867 8.10847 92.4444 7.53958 92.16 7.11292C91.8756 6.68625 91.5911 6.11736 91.0222 5.83292C90.4533 5.54847 89.8844 5.40625 89.1733 5.40625C88.1778 5.40625 87.3244 5.69069 86.7556 6.11736C86.1867 6.54403 85.76 7.25514 85.76 8.10847C85.76 8.81958 86.0444 9.38847 86.4711 9.81514C86.8978 10.2418 87.8933 10.6685 89.0311 11.0951C89.8844 11.3796 90.5956 11.664 90.88 11.9485C91.1644 12.2329 91.4489 12.6596 91.4489 13.0863C91.4489 13.5129 91.3067 13.9396 90.88 14.224C90.4533 14.5084 90.0267 14.6506 89.3156 14.6506C88.6044 14.6506 87.8933 14.5084 87.4667 14.0818C87.04 13.6551 86.7556 13.3707 86.7556 12.6596H85.3333C85.3333 13.2285 85.4756 13.7974 85.76 14.224C86.0444 14.6506 86.6133 15.0773 87.1822 15.3617C87.7511 15.6462 88.4622 15.7884 89.1733 15.7884C90.3111 15.7884 91.1644 15.504 91.7333 15.0773C92.3022 14.6506 92.7289 13.9396 92.7289 13.0863C92.7289 12.5174 92.5867 12.0907 92.4444 11.8063C92.16 11.3796 91.8755 11.0951 91.3067 10.8107ZM96.1422 10.9529H100.551V9.81514H96.1422V6.68625H101.12V5.54847H94.72V15.6462H101.12V14.5084H96V10.9529H96.1422ZM104.391 5.54847H103.111V15.6462H109.227V14.5084H104.391V5.54847ZM112.356 5.54847H111.076V15.6462H117.191V14.5084H112.356V5.54847ZM120.32 10.9529H124.729V9.81514H120.32V6.68625H125.298V5.54847H118.898V15.6462H125.298V14.5084H120.178V10.9529H120.32ZM132.267 11.2374C132.836 10.9529 133.404 10.6685 133.689 10.2418C133.973 9.81514 134.258 9.24625 134.258 8.53514C134.258 7.53958 133.973 6.82847 133.404 6.25958C132.836 5.69069 131.982 5.54847 130.844 5.54847H127.431V15.6462H128.711V11.5218H131.129L133.262 15.6462H134.684V15.504L132.267 11.2374ZM130.702 10.5263H128.711V6.68625H130.702C131.413 6.68625 131.982 6.82847 132.267 7.25514C132.693 7.53958 132.836 8.10847 132.836 8.67736C132.836 9.24625 132.693 9.67292 132.267 10.0996C131.84 10.5262 131.413 10.5263 130.702 10.5263Z" fill="#F47D0A"/>
<path d="M140.231 33.1397C141.369 33.1397 142.08 33.4242 142.649 34.1353C143.076 34.8464 143.502 35.6997 143.644 36.6953H145.92C145.778 34.4197 145.209 32.8553 144.213 31.8597C143.218 30.8642 141.938 30.4375 140.373 30.4375C138.524 30.4375 137.102 31.2908 135.964 32.9975C134.827 34.7042 134.258 36.9797 134.258 39.9664C134.258 42.3842 134.827 44.3753 135.822 46.0819C136.96 47.6464 138.382 48.4997 140.089 48.4997C141.653 48.4997 142.933 47.9308 144.071 46.9353C145.067 45.9397 145.778 44.2331 146.062 41.9575H143.644C143.36 43.2375 143.076 44.2331 142.507 44.9442C141.938 45.6553 141.227 46.0819 140.231 46.0819C138.951 46.0819 138.098 45.5131 137.529 44.3753C136.96 43.2375 136.676 41.8153 136.676 40.1086C136.676 38.4019 136.818 36.9797 137.244 35.8419C137.813 33.9931 138.809 33.1397 140.231 33.1397ZM160.142 46.0819C160 46.0819 159.858 46.0819 159.858 46.0819C159.573 46.0819 159.289 45.9397 159.289 45.7975C159.147 45.6553 159.147 45.3708 159.147 45.0864V35.2731C159.147 33.7086 158.578 32.4286 157.582 31.7175C156.587 31.0064 155.307 30.5797 153.6 30.5797C152.178 30.5797 151.04 31.0064 149.902 31.8597C148.907 32.7131 148.338 34.1353 148.196 36.2686H150.329C150.471 35.4153 150.613 34.7042 150.898 34.2775C151.467 33.4242 152.32 32.9975 153.458 32.9975C154.453 32.9975 155.307 33.2819 155.876 33.7086C156.444 34.1353 156.729 34.8464 156.729 35.8419C156.729 36.2686 156.729 36.6953 156.587 36.9797C156.444 37.4064 156.018 37.6908 155.591 37.8331L151.893 38.4019C150.613 38.5442 149.618 39.1131 148.764 39.9664C147.911 40.8197 147.627 42.0997 147.627 43.6642C147.627 45.0864 148.053 46.3664 148.907 47.2197C149.76 48.0731 150.756 48.6419 152.036 48.6419C153.031 48.6419 154.027 48.3575 154.88 47.7886C155.733 47.2197 156.444 46.5086 156.871 45.7975C157.013 46.5086 157.013 46.9353 157.298 47.3619C157.724 48.0731 158.293 48.3575 159.004 48.3575C159.289 48.3575 159.573 48.3575 159.716 48.3575C159.858 48.3575 160.142 48.2153 160.569 48.0731V45.9397C160.427 46.0819 160.284 46.0819 160.142 46.0819ZM156.729 41.8153C156.729 43.5219 156.018 44.8019 154.738 45.6553C154.027 46.0819 153.173 46.3664 152.32 46.3664C151.609 46.3664 151.04 46.0819 150.613 45.6553C150.187 45.2286 149.902 44.5175 149.902 43.6642C149.902 42.5264 150.329 41.8153 151.04 41.2464C151.467 40.9619 152.036 40.6775 152.889 40.5353L154.311 40.2508C154.738 40.2508 155.164 40.1086 155.591 39.9664C156.018 39.8242 156.444 39.6819 156.729 39.3975V41.8153ZM95.5733 44.2331C93.7244 43.2375 91.5911 42.9531 89.6 42.9531L95.0044 35.2731C95.5733 34.5619 95.8578 34.1353 95.8578 33.8508V31.8597C95.8578 31.5753 95.5733 31.2908 95.2889 31.2908H84.7644C84.48 31.2908 84.1955 31.5753 84.1955 31.8597V34.1353C84.1955 34.4197 84.48 34.7042 84.7644 34.7042H90.3111L83.9111 43.6642C83.4844 44.2331 83.4844 44.9442 83.4844 45.2286V47.5042C83.4844 47.7886 83.9111 48.2153 84.1955 48.0731C87.7511 46.2242 92.0178 46.3664 95.2889 48.0731C95.7155 48.2153 96 47.9308 96 47.5042V45.0864C96.1422 44.8019 96 44.3753 95.5733 44.2331ZM58.88 31.0064C57.0311 31.0064 55.1822 32.0019 54.4711 33.9931C53.6178 32.0019 52.3378 31.0064 50.3467 31.0064C48.3556 31.0064 46.9333 32.0019 46.08 33.9931V31.8597C46.08 31.5753 45.7956 31.2908 45.5111 31.2908H42.5244C42.24 31.2908 41.9556 31.5753 41.9556 31.8597V47.9308C41.9556 48.2153 42.24 48.4997 42.5244 48.4997H45.7956C46.08 48.4997 46.3644 48.2153 46.3644 47.9308V39.3975C46.3644 37.5486 46.2222 34.9886 48.64 34.9886C50.9156 34.9886 50.6311 37.6908 50.6311 39.3975V47.9308C50.6311 48.2153 50.9156 48.4997 51.2 48.4997H54.4711C54.7556 48.4997 55.04 48.2153 55.04 47.9308V39.3975C55.04 38.5442 55.04 37.1219 55.3244 36.2686C55.6089 35.4153 56.4622 34.9886 57.1733 34.9886C58.1689 34.9886 58.88 35.2731 59.0222 36.4108C59.1644 37.1219 59.1644 38.6864 59.1644 39.3975V47.9308C59.1644 48.2153 59.4489 48.4997 59.7333 48.4997H63.0044C63.2889 48.4997 63.5733 48.2153 63.5733 47.9308V37.6908C63.5733 35.9842 63.7155 33.9931 62.72 32.5708C61.7244 31.5753 60.3022 31.0064 58.88 31.0064ZM104.818 31.0064C100.124 31.0064 97.5644 34.8464 97.5644 39.9664C97.5644 44.9442 100.124 48.9264 104.818 48.9264C109.369 48.9264 112.213 45.0864 112.213 40.1086C112.213 34.9886 109.653 31.0064 104.818 31.0064ZM104.818 45.5131C102.258 45.5131 102.4 41.2464 102.4 39.3975C102.4 37.5486 102.542 34.2775 104.96 34.2775C105.956 34.2775 106.667 34.7042 107.093 35.8419C107.52 37.1219 107.52 38.8286 107.52 40.1086C107.52 42.2419 107.378 45.5131 104.818 45.5131ZM123.164 31.0064C120.889 31.0064 119.751 32.0019 118.756 34.2775V31.8597C118.756 31.5753 118.471 31.4331 118.187 31.4331H115.2C114.916 31.4331 114.631 31.7175 114.631 32.0019V48.2153C114.631 48.4997 114.916 48.7842 115.2 48.7842H118.329C118.613 48.7842 118.898 48.4997 118.898 48.2153V39.5397C118.898 38.4019 118.898 37.4064 119.467 36.5531C119.893 35.8419 120.604 35.2731 121.316 35.2731C123.591 35.2731 123.307 37.8331 123.307 39.6819V48.4997C123.307 48.7842 123.591 48.9264 123.876 49.0686H127.147C127.431 49.0686 127.716 48.7842 127.716 48.4997V38.4019C127.716 36.8375 127.716 34.7042 126.862 33.4242C126.009 31.4331 124.587 31.0064 123.164 31.0064ZM131.413 45.7975C130.56 45.7975 129.849 46.5086 129.849 47.2197C129.849 48.0731 130.56 48.6419 131.413 48.6419C132.267 48.6419 132.978 47.9308 132.978 47.2197C132.978 46.5086 132.267 45.7975 131.413 45.7975ZM80.2133 42.6686V37.8331C80.2133 35.6997 80.3556 33.8508 78.7911 32.4286C77.5111 31.2908 75.52 30.8642 73.9556 30.8642C70.9689 30.8642 67.5556 32.0019 66.8444 35.6997C66.7022 36.1264 67.1289 36.2686 67.2711 36.4108L70.4 36.6953C70.6844 36.6953 70.9689 36.4108 70.9689 36.1264C71.2533 34.8464 72.3911 34.2775 73.5289 34.2775C74.24 34.2775 74.9511 34.5619 75.3778 35.1308C75.8044 35.8419 75.8044 36.6953 75.8044 37.4064V37.8331C73.9556 37.9753 71.5378 38.1175 69.8311 38.9708C67.84 39.8242 66.4178 41.5308 66.4178 44.0908C66.4178 47.3619 68.5511 48.9264 71.2533 48.9264C73.5289 48.9264 74.8089 48.3575 76.5155 46.6508C77.0844 47.5042 77.2267 47.9308 78.3644 48.7842C78.6489 48.9264 78.9333 48.9264 79.0755 48.6419C79.7867 48.0731 80.9244 47.0775 81.4933 46.5086C81.7778 46.3664 81.7778 45.9397 81.4933 45.6553C80.7822 44.8019 80.2133 44.2331 80.2133 42.6686ZM75.6622 40.8197C75.6622 42.0997 75.6622 43.0953 75.0933 44.0908C74.5244 44.9442 73.8133 45.5131 72.8178 45.5131C71.5378 45.5131 70.8267 44.6597 70.8267 43.2375C70.8267 40.5353 73.2444 40.1086 75.6622 40.1086V40.8197ZM38.1156 42.6686V37.8331C38.1156 35.6997 38.2578 33.8508 36.6933 32.4286C35.4133 31.2908 33.4222 30.8642 31.8578 30.8642C28.8711 30.8642 25.4578 32.0019 24.7467 35.6997C24.6044 36.1264 25.0311 36.2686 25.1733 36.4108L28.3022 36.6953C28.5867 36.6953 28.8711 36.4108 28.8711 36.1264C29.1556 34.8464 30.2933 34.2775 31.4311 34.2775C32.1422 34.2775 32.8533 34.5619 33.28 35.1308C33.7067 35.8419 33.7067 36.6953 33.7067 37.4064V37.8331C31.8578 37.9753 29.44 38.1175 27.7333 38.9708C25.6 39.5397 24.1778 41.3886 24.1778 43.9486C24.1778 47.2197 26.3111 48.7842 29.0133 48.7842C31.2889 48.7842 32.5689 48.2153 34.2756 46.5086C34.8444 47.3619 34.9867 47.7886 36.1244 48.6419C36.4089 48.7842 36.6933 48.7842 36.8356 48.4997C37.5467 47.9308 38.6844 46.9353 39.2533 46.3664C39.5378 46.2242 39.5378 45.7975 39.2533 45.5131C38.6844 44.8019 38.1156 44.2331 38.1156 42.6686ZM33.5644 40.8197C33.5644 42.0997 33.5644 43.0953 32.9956 44.0908C32.4267 44.9442 31.7156 45.5131 30.72 45.5131C29.44 45.5131 28.7289 44.6597 28.7289 43.2375C28.7289 40.5353 31.1467 40.1086 33.5644 40.1086V40.8197Z" fill="black"/>
<path d="M87.6089 53.3327C80.9244 56.1772 73.5289 57.4572 66.8444 57.4572C56.8889 57.4572 47.36 54.755 39.68 50.3461C38.9689 49.9194 38.5422 50.6305 39.1111 51.1994C46.2222 57.5994 55.7511 61.4394 66.2755 61.4394C73.8133 61.4394 82.4889 59.1638 88.6044 54.755C89.4578 54.0438 88.6044 52.9061 87.6089 53.3327ZM93.5822 50.0616C92.8711 49.2083 87.3244 48.6394 83.7689 50.915C83.2 51.3416 83.3422 51.7683 83.9111 51.7683C85.9022 51.4838 90.1689 51.0572 90.88 52.0527C91.5911 53.0483 90.0267 57.0305 89.3156 58.7372C89.0311 59.3061 89.6 59.4483 90.0267 59.0216C93.2978 56.3194 94.1511 50.7727 93.5822 50.0616Z" fill="#FF9900"/>
</svg>
