<svg width="190" height="64" viewBox="0 0 190 64" fill="none" xmlns="http://www.w3.org/2000/svg">
<path d="M7.81781 25.0312V59.3068H168.813L185.027 25.0312H7.81781Z" fill="#232F3F"/>
<path d="M25.1689 34.275L20.4756 46.9328H22.8933L23.7467 44.515H29.2933L30.1467 46.9328H32.5645L27.8711 34.275H25.1689ZM24.3156 42.5239L26.4489 36.5506L28.5822 42.5239H24.3156ZM43.8 37.5461C42.52 37.5461 41.3822 38.3995 40.8133 39.2528C40.5289 38.2573 39.6756 37.5461 38.3956 37.5461C37.1156 37.5461 35.9778 38.3995 35.5511 38.9684V37.6884H33.7022V46.9328H35.5511V40.5328C35.9778 39.9639 36.6889 39.2528 37.5422 39.2528C38.5378 39.2528 38.9645 39.9639 38.9645 40.9595V46.9328H40.8133V40.5328C41.24 39.9639 41.9511 39.2528 42.8045 39.2528C43.8 39.2528 44.2267 39.9639 44.2267 40.9595V46.9328H45.9333V40.2484C46.36 38.3995 45.3645 37.5461 43.8 37.5461ZM52.3333 37.5461C50.9111 37.5461 49.6311 37.9728 48.6356 38.9684L49.3467 40.3906C50.0578 39.6795 50.9111 39.2528 51.9067 39.2528C53.0445 39.2528 53.8978 39.9639 53.8978 40.9595V42.3817C53.3289 41.6706 52.1911 41.2439 51.0533 41.2439C49.6311 41.2439 48.0667 42.0973 48.0667 44.2306C48.0667 46.2217 49.6311 47.2173 51.0533 47.2173C52.1911 47.2173 53.1867 46.7906 53.8978 45.9373V46.9328H56.0311V40.8173C56.0311 38.3995 54.3245 37.5461 52.3333 37.5461ZM54.04 44.7995C53.6133 45.3684 52.76 45.795 51.9067 45.795C50.9111 45.795 50.0578 45.0839 50.0578 44.2306C50.0578 43.235 50.9111 42.5239 51.9067 42.5239C52.76 42.5239 53.6133 42.8084 54.04 43.5195V44.7995ZM64.8489 39.2528V37.8306H58.0222V39.5373H62.2889L58.0222 45.5106V47.075H64.8489V45.3684H60.44L64.8489 39.2528ZM70.9645 37.5461C68.2622 37.5461 66.5556 39.6795 66.5556 42.3817C66.5556 45.0839 68.2622 47.2173 70.9645 47.2173C73.8089 47.2173 75.5156 45.0839 75.5156 42.3817C75.3733 39.6795 73.6667 37.5461 70.9645 37.5461ZM70.9645 45.3684C69.4 45.3684 68.4045 43.9461 68.4045 42.2395C68.4045 40.675 69.2578 39.2528 70.9645 39.2528C72.5289 39.2528 73.5245 40.675 73.5245 42.2395C73.3822 43.9461 72.5289 45.3684 70.9645 45.3684ZM82.2 37.5461C80.7778 37.5461 79.7822 38.2573 79.0711 38.9684V37.6884H77.3645V46.9328H79.2133V40.5328C79.64 39.9639 80.4933 39.2528 81.4889 39.2528C82.4845 39.2528 83.1956 39.6795 83.1956 41.1017V46.7906H85.0445V40.5328C85.0445 38.5417 84.1911 37.5461 82.2 37.5461ZM88.3156 34.1328C87.6045 34.1328 87.0356 34.7017 87.0356 35.4128C87.0356 36.1239 87.4622 36.5506 88.1733 36.5506C88.3156 36.5506 88.4578 36.5506 88.4578 36.5506C88.3156 37.2617 87.7467 37.9728 87.1778 38.3995L88.0311 39.1106C89.0267 38.3995 89.7378 37.1195 89.7378 35.8395C89.7378 34.7017 89.0267 34.1328 88.3156 34.1328ZM92.5822 40.2484C92.5822 39.5373 93.1511 39.1106 94.1467 39.1106C95.2845 39.1106 96.1378 39.5373 96.7067 40.2484L97.56 38.8261C96.7067 38.115 95.7111 37.5461 94.1467 37.5461C92.0134 37.5461 90.7333 38.8261 90.7333 40.3906C90.7333 43.9461 95.9956 42.6661 95.9956 44.3728C95.9956 45.0839 95.4267 45.6528 94.2889 45.6528C93.1511 45.6528 92.0134 45.0839 91.3022 44.3728L90.4489 45.795C91.3022 46.7906 92.7245 47.2173 94.1467 47.2173C96.4222 47.2173 97.7022 45.9373 97.7022 44.3728C97.8445 40.675 92.5822 41.955 92.5822 40.2484Z" fill="white"/>
<path d="M110.076 35.9833C111.356 35.9833 112.493 36.8366 113.062 37.8322L114.911 36.8366C114.058 35.2722 112.493 33.9922 110.076 33.9922C106.52 33.9922 103.818 36.6944 103.818 40.5344C103.818 44.3744 106.52 47.0766 110.076 47.0766C112.493 47.0766 113.916 45.7966 114.911 44.2322L113.204 43.3789C112.636 44.3744 111.498 45.2277 110.218 45.2277C107.8 45.2277 106.093 43.3789 106.093 40.6766C106.093 37.9744 107.8 35.9833 110.076 35.9833ZM121.596 37.5477C120.173 37.5477 119.036 38.2589 118.467 38.97V34.2766H116.618V46.9344H118.467V40.5344C118.893 39.9655 119.747 39.2544 120.742 39.2544C121.738 39.2544 122.449 39.6811 122.449 41.1033V46.9344H124.298V40.3922C124.44 38.5433 123.444 37.5477 121.596 37.5477ZM130.698 37.5477C127.996 37.5477 126.289 39.6811 126.289 42.3833C126.289 45.0855 127.996 47.2189 130.698 47.2189C133.542 47.2189 135.249 45.0855 135.249 42.3833C135.249 39.6811 133.542 37.5477 130.698 37.5477ZM130.698 45.37C129.133 45.37 128.138 43.9477 128.138 42.2411C128.138 40.6766 128.991 39.2544 130.698 39.2544C132.262 39.2544 133.258 40.6766 133.258 42.2411C133.258 43.9477 132.404 45.37 130.698 45.37ZM138.093 34.1344C137.524 34.1344 136.956 34.7033 136.956 35.4144C136.956 36.1255 137.524 36.6944 138.093 36.6944C138.804 36.6944 139.231 36.1255 139.231 35.4144C139.231 34.7033 138.662 34.1344 138.093 34.1344ZM137.098 46.9344H138.947V37.69H137.098V46.9344ZM145.489 39.2544C146.342 39.2544 147.053 39.6811 147.48 40.3922L148.76 39.1122C148.191 38.2589 147.053 37.5477 145.489 37.5477C142.787 37.5477 140.938 39.5389 140.938 42.3833C140.938 45.2277 142.787 47.2189 145.489 47.2189C147.196 47.2189 148.191 46.5077 148.76 45.6544L147.48 44.3744C147.053 45.0855 146.342 45.5122 145.489 45.5122C143.924 45.5122 142.929 44.2322 142.929 42.3833C142.929 40.5344 143.924 39.2544 145.489 39.2544ZM158.573 42.5255C158.573 39.6811 156.867 37.5477 154.307 37.5477C151.747 37.5477 149.898 39.6811 149.898 42.3833C149.898 45.2277 151.889 47.2189 154.449 47.2189C155.871 47.2189 157.151 46.7922 158.004 45.9389L157.151 44.6589C156.582 45.37 155.587 45.6544 154.733 45.6544C153.027 45.6544 152.173 44.5166 151.889 43.0944H158.573V42.5255ZM151.889 41.6722C152.031 40.5344 152.742 39.2544 154.307 39.2544C156.013 39.2544 156.724 40.5344 156.724 41.6722H151.889Z" fill="#F79C31"/>
<path fill-rule="evenodd" clip-rule="evenodd" d="M44.6533 10.3817C45.08 10.2395 45.5067 9.95505 45.7911 9.52839C46.0756 9.10172 46.2178 8.81727 46.2178 8.24839C46.2178 7.39505 45.9333 6.68394 45.3645 6.25727C44.7956 5.83061 43.9422 5.54616 42.9467 5.54616H39.6756V15.644H43.0889C44.2267 15.644 44.9378 15.3596 45.6489 14.9329C46.2178 14.364 46.5022 13.6528 46.5022 12.7995C46.5022 12.2306 46.36 11.6617 46.0756 11.2351C45.6489 10.8084 45.2222 10.5239 44.6533 10.3817ZM40.8133 6.68394H42.8045C43.5156 6.68394 43.9422 6.82616 44.2267 7.11061C44.5111 7.39505 44.6533 7.82172 44.6533 8.39061C44.6533 8.9595 44.5111 9.24394 44.0845 9.52839C43.8 9.81283 43.2311 9.95505 42.6622 9.95505H40.6711V6.68394H40.8133ZM44.5111 14.0795C44.0845 14.364 43.6578 14.5062 43.0889 14.5062H40.9556V10.9506H43.0889C44.3689 10.9506 45.08 11.5195 45.08 12.7995C45.08 13.3684 44.9378 13.7951 44.5111 14.0795ZM50.0578 10.9506H54.4667V9.81283H50.0578V6.68394H55.0356V5.54616H48.6356V15.644H55.0356V14.5062H49.9156V10.9506H50.0578ZM62.4311 10.8084C62.0045 10.5239 61.2933 10.2395 60.44 10.0973C59.5867 9.81283 59.0178 9.67061 58.5911 9.24394C58.3067 8.9595 58.0222 8.67505 58.0222 8.24839C58.0222 7.6795 58.1645 7.39505 58.5911 7.11061C59.0178 6.82616 59.4445 6.68394 60.1556 6.68394C60.8667 6.68394 61.4356 6.82616 61.8622 7.25283C62.2889 7.53727 62.4311 8.10616 62.4311 8.67505H63.7111C63.7111 8.10616 63.5689 7.53727 63.2845 7.11061C63 6.68394 62.5733 6.25727 62.0045 5.97283C61.4356 5.68839 60.8667 5.54616 60.1556 5.54616C59.16 5.54616 58.3067 5.83061 57.7378 6.25727C57.1689 6.68394 56.7422 7.39505 56.7422 8.24839C56.7422 8.9595 57.0267 9.52839 57.4533 9.95505C58.0222 10.3817 58.8756 10.8084 60.0133 11.2351C61.0089 11.3773 61.5778 11.6617 61.8622 11.9462C62.1467 12.2306 62.4311 12.6573 62.4311 13.0839C62.4311 13.5106 62.2889 13.9373 61.8622 14.2217C61.4356 14.5062 61.0089 14.6485 60.2978 14.6485C59.5867 14.6485 58.8756 14.5062 58.4489 14.0795C58.0222 13.6528 57.7378 13.2262 57.7378 12.6573H56.4578C56.4578 13.2262 56.6 13.7951 56.8845 14.2217C57.1689 14.6485 57.7378 15.0751 58.3067 15.3596C58.8756 15.644 59.5867 15.7862 60.2978 15.7862C61.4356 15.7862 62.2889 15.5018 62.8578 15.0751C63.4267 14.6485 63.8533 13.9373 63.8533 13.0839C63.8533 12.5151 63.7111 12.0884 63.5689 11.8039C63.1422 11.3773 62.8578 11.0928 62.4311 10.8084ZM64.9911 6.68394H68.2622V15.644H69.5422V6.68394H72.8133V5.54616H64.9911V6.68394ZM81.6311 5.54616H77.9333V15.644H79.2133V11.6617H81.6311C82.7689 11.6617 83.6222 11.3773 84.3333 10.8084C84.9022 10.2395 85.1867 9.52839 85.1867 8.53283C85.1867 7.53727 84.9022 6.82616 84.1911 6.25727C83.6222 5.83061 82.7689 5.54616 81.6311 5.54616ZM83.3378 10.0973C82.9111 10.3817 82.3422 10.6662 81.6311 10.6662H79.2133V6.68394H81.6311C82.3422 6.68394 82.7689 6.82616 83.1956 7.25283C83.6222 7.6795 83.7645 8.10616 83.7645 8.67505C83.9067 9.24394 83.7645 9.81283 83.3378 10.0973ZM93.5778 10.2395C93.8622 9.81283 94.1467 9.24394 94.1467 8.53283C94.1467 7.53727 93.8622 6.82616 93.2934 6.25727C92.7245 5.68839 91.8711 5.54616 90.7333 5.54616H87.1778V15.644H88.6V11.5195H91.0178L93.1511 15.644H94.5733V15.5018L92.1556 11.2351C92.7245 11.0928 93.2934 10.6662 93.5778 10.2395ZM90.5911 10.5239H88.6V6.68394H90.5911C91.3022 6.68394 91.8711 6.82616 92.1556 7.25283C92.5822 7.53727 92.7245 8.10616 92.7245 8.67505C92.7245 9.24394 92.5822 9.67061 92.1556 10.0973C91.7289 10.2395 91.3022 10.5239 90.5911 10.5239ZM102.111 5.97283C101.542 5.54616 100.831 5.40394 99.9778 5.40394C99.1245 5.40394 98.4133 5.54616 97.8445 5.97283C97.2756 6.3995 96.7067 6.96839 96.4222 7.6795C96.1378 8.39061 95.8533 9.24394 95.8533 10.2395V10.9506C95.8533 11.9462 95.9956 12.7995 96.4222 13.5106C96.7067 14.2217 97.2756 14.7907 97.8445 15.2173C98.4133 15.644 99.1245 15.7862 99.9778 15.7862C100.831 15.7862 101.542 15.644 102.111 15.2173C102.68 14.7907 103.249 14.2217 103.533 13.5106C103.818 12.7995 104.102 11.9462 104.102 10.9506V10.2395C104.102 9.24394 103.96 8.39061 103.533 7.6795C103.107 6.96839 102.68 6.3995 102.111 5.97283ZM102.68 10.9506C102.68 12.0884 102.396 13.0839 101.969 13.6528C101.542 14.2217 100.831 14.6485 99.9778 14.6485C99.1245 14.6485 98.4133 14.364 97.9867 13.6528C97.56 12.9417 97.2756 12.0884 97.2756 10.9506V10.2395C97.2756 9.10172 97.56 8.24839 97.9867 7.53727C98.4133 6.82616 99.1245 6.54172 99.9778 6.54172C100.831 6.54172 101.542 6.82616 101.969 7.53727C102.396 8.24839 102.68 9.10172 102.68 10.2395V10.9506ZM111.498 6.11505C110.787 5.68839 110.076 5.54616 109.222 5.54616H106.378V15.644H109.222C110.076 15.644 110.929 15.5018 111.64 15.0751C112.351 14.6485 112.778 14.0795 113.204 13.3684C113.631 12.6573 113.773 11.8039 113.773 10.8084V10.2395C113.773 9.24394 113.631 8.53283 113.204 7.82172C112.636 7.11061 112.209 6.54172 111.498 6.11505ZM112.351 10.8084C112.351 11.9462 112.067 12.9417 111.498 13.5106C110.929 14.0795 110.076 14.5062 109.08 14.5062H107.658V6.68394H109.222C110.218 6.68394 110.929 6.96839 111.498 7.6795C112.067 8.39061 112.351 9.24394 112.351 10.3817V10.8084ZM121.738 12.3728C121.738 13.0839 121.596 13.6528 121.169 14.0795C120.742 14.5062 120.173 14.6485 119.462 14.6485C118.751 14.6485 118.182 14.5062 117.756 14.0795C117.187 13.6528 117.044 13.0839 117.044 12.3728V5.54616H115.764V12.3728C115.764 13.3684 116.049 14.2217 116.76 14.7907C117.471 15.3596 118.324 15.644 119.462 15.644H119.747C120.742 15.5018 121.596 15.2173 122.164 14.6485C122.733 14.0795 123.018 13.2262 123.018 12.3728V5.54616H121.738V12.3728ZM127.142 7.39505C127.569 6.82616 128.28 6.3995 129.133 6.3995C129.844 6.3995 130.413 6.54172 130.698 6.96839C131.124 7.39505 131.267 7.96394 131.409 8.67505H132.689C132.547 7.6795 132.262 6.82616 131.551 6.11505C130.84 5.54616 129.987 5.26172 128.991 5.26172C128.138 5.26172 127.427 5.40394 126.858 5.83061C126.289 6.25727 125.72 6.82616 125.436 7.53727C125.151 8.24839 124.867 9.10172 124.867 9.95505V10.9506C124.867 12.3728 125.293 13.5106 126.004 14.364C126.716 15.2173 127.711 15.644 128.849 15.644C129.987 15.644 130.84 15.3596 131.551 14.7907C132.262 14.2217 132.547 13.3684 132.689 12.3728H131.409C131.267 13.2262 130.982 13.7951 130.556 14.0795C130.129 14.364 129.56 14.6485 128.849 14.6485C127.996 14.6485 127.427 14.364 126.858 13.6528C126.431 12.9417 126.147 12.0884 126.147 11.0928V10.0973C126.431 8.9595 126.716 8.10616 127.142 7.39505ZM133.969 5.54616V6.68394H137.24V15.644H138.52V6.68394H141.791V5.54616H133.969Z" fill="#F18200"/>
</svg>
