<svg width="190" height="64" viewBox="0 0 190 64" fill="none" xmlns="http://www.w3.org/2000/svg">
<path fill-rule="evenodd" clip-rule="evenodd" d="M54.4623 8.95984C54.8889 8.81762 55.3156 8.53318 55.6001 8.10651C55.8845 7.67984 56.0267 7.3954 56.0267 6.82651C56.0267 5.97318 55.7423 5.26207 55.1734 4.8354C54.6045 4.40873 53.7512 4.12429 52.7556 4.12429H49.4845V14.2221H53.0401C54.1778 14.2221 54.8889 13.9376 55.6001 13.511C55.8845 12.9421 56.3112 12.231 56.3112 11.2354C56.3112 10.6665 56.1689 10.0976 55.8845 9.67096C55.4578 9.38651 55.0312 9.10207 54.4623 8.95984ZM50.7645 5.26207H52.7556C53.4667 5.26207 53.8934 5.40429 54.1778 5.68873C54.4623 5.97318 54.6045 6.39984 54.6045 6.96873C54.6045 7.53762 54.4623 7.82207 54.0356 8.10651C53.7512 8.39096 53.1823 8.53318 52.6134 8.53318H50.6223V5.26207H50.7645ZM54.32 12.6576C53.8934 12.9421 53.4667 13.0843 52.8978 13.0843H50.7645V9.52873H53.0401C54.1778 9.52873 54.8889 10.0976 54.8889 11.3776C54.8889 11.9465 54.7467 12.3732 54.32 12.6576ZM59.8667 9.52873H64.2756V8.39095H59.8667V5.26207H64.8445V4.12429H58.4445V14.2221H64.8445V13.0843H59.7245V9.52873H59.8667ZM72.2401 9.38651C71.8134 9.10207 71.1023 8.81762 70.2489 8.6754C69.3956 8.39095 68.8267 8.24873 68.4001 7.82207C68.1156 7.53762 67.8312 7.25318 67.8312 6.82651C67.8312 6.25762 67.9734 5.97318 68.4001 5.68873C68.8267 5.40429 69.2534 5.26207 69.9645 5.26207C70.6756 5.26207 71.2445 5.40429 71.6712 5.83095C72.0978 6.1154 72.2401 6.68429 72.2401 7.25318H73.5201C73.5201 6.68429 73.3778 6.1154 73.0934 5.68873C72.8089 5.26207 72.3823 4.8354 71.8134 4.55095C71.2445 4.26651 70.6756 4.12429 69.9645 4.12429C68.9689 4.12429 68.1156 4.40873 67.5467 4.8354C66.9778 5.26207 66.5512 5.97318 66.5512 6.82651C66.5512 7.53762 66.8356 8.10651 67.2623 8.53318C67.8312 8.95984 68.6845 9.38651 69.8223 9.81318C70.6756 10.0976 71.3867 10.3821 71.6712 10.6665C71.9556 10.951 72.2401 11.3776 72.2401 11.8043C72.2401 12.231 72.0978 12.6576 71.6712 12.9421C71.2445 13.2265 70.8178 13.3687 70.1067 13.3687C69.3956 13.3687 68.6845 13.2265 68.2578 12.7998C67.8312 12.5154 67.5467 11.9465 67.5467 11.3776H66.2667C66.2667 11.9465 66.4089 12.5154 66.6934 12.9421C66.9778 13.3687 67.5467 13.7954 68.1156 14.0798C68.6845 14.3644 69.3956 14.5066 70.1067 14.5066C71.2445 14.5066 72.0978 14.2221 72.6667 13.7954C73.2356 13.3687 73.6623 12.6576 73.6623 11.8043C73.6623 11.2354 73.5201 10.8087 73.3778 10.5243C73.0934 9.9554 72.6667 9.67095 72.2401 9.38651ZM74.8001 5.26207H78.0712V14.2221H79.3512V5.26207H82.6223V4.12429H74.8001V5.26207ZM89.4489 5.97318C89.8756 5.40429 90.5867 4.97762 91.4401 4.97762C92.1512 4.97762 92.7201 5.11984 93.0045 5.54651C93.4312 5.97318 93.5734 6.54207 93.7156 7.25318H94.9956C94.8534 6.25762 94.5689 5.40429 93.8578 4.69318C93.1467 4.12429 92.2934 3.83984 91.2978 3.83984C90.4445 3.83984 89.7334 3.98207 89.1645 4.40873C88.5956 4.8354 88.0267 5.40429 87.7423 6.1154C87.4578 6.82651 87.1734 7.67984 87.1734 8.53318V9.52873C87.1734 10.951 87.6001 12.0887 88.3112 12.9421C89.0223 13.7954 90.0178 14.2221 91.1556 14.2221C92.2934 14.2221 93.1467 13.9376 93.8578 13.3687C94.5689 12.7998 94.8534 11.9465 94.9956 10.951H93.7156C93.5734 11.8043 93.2889 12.3732 92.8623 12.6576C92.4356 12.9421 91.8667 13.2265 91.1556 13.2265C90.3023 13.2265 89.7334 12.9421 89.1645 12.231C88.7378 11.5198 88.4534 10.6665 88.4534 9.67096V8.6754C88.7378 7.53762 89.0223 6.68429 89.4489 5.97318ZM103.671 8.39095H98.5512V4.12429H97.2712V14.2221H98.5512V9.52873H103.671V14.2221H104.951V4.12429H103.671V8.39095ZM113.627 4.55095C113.058 4.12429 112.347 3.98207 111.493 3.98207C110.64 3.98207 109.929 4.12429 109.36 4.55095C108.791 4.97762 108.222 5.54651 107.938 6.25762C107.653 6.96873 107.369 7.82207 107.369 8.81762V9.52873C107.369 10.5243 107.511 11.3776 107.938 12.0887C108.222 12.7998 108.791 13.3687 109.36 13.7954C109.929 14.2221 110.64 14.3644 111.493 14.3644C112.347 14.3644 113.058 14.2221 113.627 13.7954C114.196 13.3687 114.765 12.7998 115.049 12.0887C115.333 11.3776 115.618 10.5243 115.618 9.52873V8.81762C115.618 7.82207 115.476 6.96873 115.049 6.25762C114.622 5.54651 114.196 4.97762 113.627 4.55095ZM114.196 9.52873C114.196 10.6665 113.911 11.6621 113.484 12.231C113.058 12.7998 112.347 13.2265 111.493 13.2265C110.64 13.2265 109.929 12.9421 109.502 12.231C109.076 11.5198 108.791 10.6665 108.791 9.52873V8.81762C108.791 7.67984 109.076 6.82651 109.502 6.1154C109.929 5.40429 110.64 5.11984 111.493 5.11984C112.347 5.11984 113.058 5.40429 113.484 6.1154C113.911 6.82651 114.196 7.67984 114.196 8.81762V9.52873ZM117.893 14.2221H119.173V4.12429H117.893V14.2221ZM123.725 5.97318C124.151 5.40429 124.862 4.97762 125.716 4.97762C126.427 4.97762 126.996 5.11984 127.28 5.54651C127.707 5.97318 127.849 6.54207 127.991 7.25318H129.271C129.129 6.25762 128.844 5.40429 128.133 4.69318C127.422 4.12429 126.569 3.83984 125.573 3.83984C124.72 3.83984 124.009 3.98207 123.44 4.40873C122.871 4.8354 122.302 5.40429 122.018 6.1154C121.733 6.82651 121.449 7.67984 121.449 8.53318V9.52873C121.449 10.951 121.876 12.0887 122.587 12.9421C123.298 13.7954 124.293 14.2221 125.431 14.2221C126.569 14.2221 127.422 13.9376 128.133 13.3687C128.844 12.7998 129.129 11.9465 129.271 10.951H127.991C127.849 11.8043 127.564 12.3732 127.138 12.6576C126.711 12.9421 126.142 13.2265 125.431 13.2265C124.578 13.2265 124.009 12.9421 123.44 12.231C123.013 11.5198 122.729 10.6665 122.729 9.67096V8.6754C122.871 7.53762 123.156 6.68429 123.725 5.97318ZM132.827 13.0843V9.52873H137.236V8.39095H132.827V5.26207H137.805V4.12429H131.405V14.2221H137.805V13.0843H132.827Z" fill="#F47D0A"/>
<path d="M112.631 44.3746C110.64 43.2368 108.364 42.9523 106.231 42.9523L112.062 34.8457C112.631 34.1346 112.916 33.7078 112.916 33.2812V31.2901C112.916 30.8635 112.631 30.7212 112.204 30.7212H100.969C100.684 30.7212 100.4 31.0057 100.4 31.2901V33.7079C100.4 34.1346 100.684 34.2768 101.111 34.2768H106.942L100.116 43.8055C99.6889 44.3744 99.6889 45.0857 99.6889 45.5123V48.0722C99.6889 48.4989 100.116 48.7835 100.542 48.6412C104.382 46.6501 108.933 46.7923 112.489 48.6412C112.916 48.9257 113.342 48.4989 113.342 48.0722V45.5123C113.2 45.2279 113.058 44.8012 112.631 44.3746ZM73.52 30.2944C71.5289 30.2944 69.68 31.2901 68.8267 33.4235C67.8311 31.2901 66.5511 30.2944 64.4178 30.2944C62.2845 30.2944 60.72 31.2901 59.8667 33.4235V31.2901C59.8667 31.0057 59.5822 30.7212 59.2978 30.7212H56.1689C55.7422 30.7212 55.4578 31.0057 55.4578 31.2901V48.4989C55.4578 48.7833 55.7422 49.0679 56.0267 49.0679H59.44C59.8667 49.0679 60.1511 48.7833 60.1511 48.4989V39.3968C60.1511 37.4057 60.0089 34.7035 62.5689 34.7035C64.9867 34.7035 64.7022 37.5479 64.7022 39.3968V48.4989C64.7022 48.7833 64.9867 49.0679 65.2711 49.0679H68.6845C69.1111 49.0679 69.3956 48.7833 69.3956 48.4989V39.3968C69.3956 38.4012 69.3956 36.9789 69.68 36.1257C69.9645 35.2723 70.96 34.7035 71.6711 34.7035C72.6667 34.7035 73.3778 34.9879 73.6622 36.1257C73.8045 36.8368 73.8045 38.6857 73.8045 39.3968V48.4989C73.8045 48.7833 74.0889 49.0679 74.3734 49.0679H77.6445C78.0711 49.0679 78.3556 48.7833 78.3556 48.4989V37.5479C78.3556 35.699 78.64 33.5657 77.5022 32.1435C76.5067 31.0057 74.9422 30.2944 73.52 30.2944ZM122.587 30.2944C117.609 30.2944 114.907 34.419 114.907 39.8235C114.907 45.2279 117.609 49.4944 122.587 49.4944C127.422 49.4944 130.409 45.3701 130.409 40.1079C130.409 34.5612 127.707 30.2944 122.587 30.2944ZM122.587 45.9389C119.884 45.9389 119.884 41.3879 119.884 39.3968C119.884 37.2635 120.027 33.85 122.587 33.85C123.724 33.85 124.436 34.2768 124.862 35.5568C125.289 36.979 125.431 38.6857 125.431 40.1079C125.431 42.3835 125.289 45.9389 122.587 45.9389ZM146.196 32.4278C145.2 31.0055 143.778 30.4368 142.213 30.4368C139.796 30.4368 138.516 31.5744 137.52 33.85V31.1479C137.52 30.8635 137.236 30.7212 136.951 30.7212H133.822C133.538 30.7212 133.253 31.0057 133.111 31.2901V48.4989C133.111 48.7833 133.396 49.0679 133.68 49.0679H137.093C137.52 49.0679 137.804 48.7833 137.804 48.4989V39.2546C137.804 38.1168 137.804 36.9789 138.373 35.9833C138.8 35.13 139.511 34.5611 140.364 34.5611C142.782 34.5611 142.498 37.2635 142.498 39.2546V48.6412C142.498 48.9257 142.782 49.21 143.067 49.21H146.48C146.764 49.21 147.049 48.9257 147.191 48.6412V37.8323C147.049 35.9835 147.049 33.85 146.196 32.4278ZM96.2756 42.9523V37.6901C96.2756 35.4146 96.4178 33.4233 94.7111 31.859C93.4311 30.579 91.1556 30.1523 89.5911 30.1523C86.32 30.1523 82.7645 31.29 81.9111 35.2722C81.7689 35.6989 82.1956 35.9833 82.48 35.9833L85.7511 36.2679C86.0356 36.2679 86.32 35.9835 86.32 35.699C86.6045 34.2768 87.7422 33.7079 89.0222 33.7079C89.7334 33.7079 90.5867 33.9922 91.0134 34.5611C91.44 35.2722 91.44 36.2679 91.44 36.979V37.4055C89.4489 37.69 86.8889 37.8323 85.04 38.5435C82.9067 39.3968 81.3422 41.2457 81.3422 44.0901C81.3422 47.6457 83.6178 49.3523 86.4622 49.3523C88.88 49.3523 90.16 48.7835 92.1511 46.9346C92.72 47.7879 93.0045 48.2144 94.1422 49.21C94.4267 49.3522 94.7111 49.3523 94.9956 49.0679C95.7067 48.499 96.9867 47.3612 97.5556 46.7923C97.84 46.5079 97.84 46.2233 97.5556 45.9389C96.8445 45.2278 96.2756 44.3746 96.2756 42.9523ZM91.44 40.9611C91.44 42.2411 91.44 43.3789 90.7289 44.5166C90.16 45.5122 89.3067 46.0812 88.3111 46.0812C87.0311 46.0812 86.1778 45.0857 86.1778 43.6635C86.1778 40.819 88.7378 40.25 91.2978 40.25V40.9611H91.44ZM51.3334 42.9523V37.6901C51.3334 35.4146 51.4756 33.4233 49.7689 31.859C48.4889 30.7212 46.3556 30.2944 44.6489 30.2944C41.3778 30.2944 37.8222 31.4323 36.9689 35.4146C36.8267 35.8411 37.2534 36.1257 37.5378 36.1257L40.8089 36.4101C41.0934 36.4101 41.3778 36.1257 41.3778 35.8412C41.6622 34.419 42.8 33.85 44.08 33.85C44.7911 33.85 45.6445 34.1344 46.0711 34.7035C46.4978 35.4146 46.4978 36.4101 46.4978 37.1212V37.5479C44.5067 37.8322 41.9467 37.9746 40.0978 38.6857C37.9645 39.3968 36.4 41.2457 36.4 44.0901C36.4 47.6457 38.6756 49.3523 41.52 49.3523C43.9378 49.3523 45.2178 48.7835 47.2089 46.9346C47.7778 47.7879 48.0622 48.2144 49.2 49.21C49.4845 49.3522 49.7689 49.3523 50.0534 49.0679C50.7645 48.499 52.0445 47.3612 52.6134 46.7923C52.8978 46.5079 52.8978 46.2233 52.6134 45.9389C51.9022 45.2278 51.3334 44.3746 51.3334 42.9523ZM46.4978 40.9611C46.4978 42.2411 46.4978 43.3789 45.7867 44.5166C45.2178 45.5122 44.3645 46.0812 43.3689 46.0812C42.0889 46.0812 41.2356 45.0857 41.2356 43.6635C41.2356 40.819 43.7956 40.25 46.3556 40.25L46.4978 40.9611Z" fill="black"/>
<path d="M104.098 54.3283C96.9867 57.315 89.0223 58.7372 81.9111 58.7372C71.3867 58.7372 61.1467 55.8928 52.8978 51.1994C52.1867 50.7728 51.6178 51.4839 52.1867 52.0528C59.8667 58.8794 69.9645 62.8616 81.2 62.8616C89.1645 62.8616 98.5511 60.4439 104.951 55.7505C106.089 55.0394 105.236 53.7594 104.098 54.3283ZM110.498 50.7728C109.787 49.9194 103.813 49.2083 100.116 51.7683C99.5467 52.195 99.6889 52.7639 100.258 52.6216C102.391 52.3372 106.942 51.7683 107.796 52.9061C108.649 53.9016 106.942 58.1683 106.089 60.1594C105.804 60.7283 106.373 61.0128 106.942 60.5861C110.356 57.5994 111.209 51.4839 110.498 50.7728Z" fill="#FF9900"/>
</svg>
