<?xml version="1.0" encoding="UTF-8"?> <svg xmlns="http://www.w3.org/2000/svg" width="57" height="70" viewBox="0 0 57 70" fill="none"> <path d="M18.3203 19.0983L24.2293 25.9766L31.9922 15.0391" stroke="white" stroke-width="2" stroke-linecap="round"></path> <path d="M56.7863 69.2802C56.8745 69.0669 56.8976 68.8323 56.8526 68.6059C56.8076 68.3796 56.6965 68.1717 56.5335 68.0085L49.777 61.2418L47.5811 52.444L48.7134 44.5107C48.7309 44.3863 48.7286 44.2598 48.7064 44.1362L46.3766 31.3355C46.2925 30.4538 45.8947 29.6317 45.2556 29.0194C44.6166 28.4071 43.7791 28.0453 42.8958 28C42.5001 28.004 42.108 28.0763 41.7367 28.2135V5.83333C41.7349 4.28681 41.1206 2.80415 40.0287 1.71059C38.9368 0.617029 37.4564 0.0018525 35.9122 0H12.608C11.0638 0.0018525 9.58333 0.617029 8.4914 1.71059C7.39948 2.80415 6.78523 4.28681 6.78338 5.83333V20.146C5.93583 19.8812 5.02528 19.8996 4.1891 20.1985C3.45857 20.4522 2.80526 20.8895 2.29169 21.4683C1.77812 22.0472 1.42146 22.7484 1.25584 23.5048C1.08967 24.2392 1.11169 25.0037 1.31985 25.7272C1.52801 26.4508 1.91554 27.1098 2.44639 27.643L5.88988 31.0917C4.9445 31.5697 4.20548 32.3764 3.81115 33.3608C3.41683 34.3452 3.39424 35.4398 3.7476 36.4397C2.8247 36.5835 1.97087 37.0159 1.30826 37.6752C0.893554 38.0896 0.564534 38.5818 0.340044 39.1237C0.115553 39.6657 0 40.2466 0 40.8333C0 41.42 0.115553 42.001 0.340044 42.5429C0.564534 43.0848 0.893554 43.5771 1.30826 43.9915L3.21407 45.9002C2.49445 46.1015 1.83782 46.4829 1.30593 47.0085C0.470651 47.8467 0.00153089 48.9825 0.00153089 50.1667C0.00153089 51.3509 0.470651 52.4867 1.30593 53.3248L5.9656 57.9915C6.21206 58.2332 6.48571 58.4454 6.78105 58.6238V59.5C6.7829 61.0465 7.39715 62.5292 8.48907 63.6227C9.581 64.7163 11.0614 65.3315 12.6056 65.3333H23.7725L28.0909 69.6582C28.1993 69.7668 28.3281 69.8529 28.4698 69.9116C28.6116 69.9702 28.7635 70.0003 28.9168 70H55.7099C55.9403 70.0001 56.1655 69.9317 56.3571 69.8036C56.5487 69.6754 56.6981 69.4933 56.7863 69.2802ZM18.4326 2.33333H30.0817V4.66667H18.4326V2.33333ZM9.11321 22.1667V5.83333C9.11321 4.90508 9.48141 4.01484 10.1368 3.35846C10.7922 2.70208 11.6811 2.33333 12.608 2.33333H16.1027V5.83333C16.1027 6.14275 16.2255 6.4395 16.4439 6.65829C16.6624 6.87708 16.9587 7 17.2676 7H31.2467C31.5556 7 31.8519 6.87708 32.0704 6.65829C32.2888 6.4395 32.4116 6.14275 32.4116 5.83333V2.33333H35.9063C36.8332 2.33333 37.7221 2.70208 38.3775 3.35846C39.0329 4.01484 39.4011 4.90508 39.4011 5.83333V53.6667H13.4059C13.2105 52.9149 12.8208 52.228 12.276 51.6752L10.3632 49.7595C11.2945 49.5054 12.1157 48.9497 12.6988 48.1792C13.2818 47.4088 13.594 46.4667 13.5865 45.5C13.5795 45.0193 13.4946 44.5429 13.3349 44.0895C13.9727 43.9927 14.581 43.755 15.1158 43.3936C15.6505 43.0322 16.0983 42.5561 16.4266 42H21.9273C22.2363 42 22.5326 41.8771 22.751 41.6583C22.9695 41.4395 23.0922 41.1428 23.0922 40.8333V33.8333C23.0922 33.5239 22.9695 33.2272 22.751 33.0084C22.5326 32.7896 22.2363 32.6667 21.9273 32.6667H14.9378C14.6288 32.6667 14.3325 32.7896 14.1141 33.0084C13.8956 33.2272 13.7729 33.5239 13.7729 33.8333V34.5333L11.1052 31.8628C10.5498 31.3204 9.86347 30.9313 9.11321 30.7335V22.1667ZM16.1027 36.9367V35H20.7624V39.6667H17.0789C17.0666 38.6742 16.723 37.7144 16.1027 36.9402V36.9367ZM4.09358 25.9933C3.84085 25.7368 3.6568 25.4206 3.55846 25.0739C3.46011 24.7272 3.45064 24.3613 3.53093 24.01C3.61316 23.6363 3.79125 23.2905 4.04762 23.0067C4.304 22.723 4.6298 22.511 4.9929 22.3918C5.17446 22.3263 5.36607 22.2932 5.55905 22.2938C5.99931 22.2999 6.42695 22.4421 6.78338 22.701V28.6872L4.09358 25.9933ZM6.4537 33.5148C6.86249 33.1251 7.40375 32.9054 7.9681 32.9C8.53009 32.8981 9.06997 33.1192 9.46968 33.5148L14.1224 38.1733C14.525 38.5754 14.7528 39.1205 14.7561 39.69C14.7545 39.9486 14.7059 40.2048 14.6128 40.446C14.5101 40.7294 14.3453 40.9861 14.1305 41.1973C13.7624 41.5666 13.2723 41.7886 12.7523 41.8214C12.2324 41.8543 11.7183 41.6958 11.3068 41.3758L6.45836 36.5307C6.2597 36.3334 6.10211 36.0985 5.99473 35.8398C5.88734 35.5811 5.83231 35.3035 5.8328 35.0233C5.83408 34.4584 6.05709 33.9166 6.4537 33.5148ZM2.95895 42.3418C2.66079 42.0428 2.45797 41.6618 2.37616 41.2472C2.29436 40.8326 2.33726 40.403 2.49943 40.0128C2.6616 39.6227 2.93574 39.2895 3.28713 39.0555C3.63853 38.8215 4.05136 38.6972 4.47334 38.6983C4.95376 38.6995 5.41953 38.864 5.79436 39.165L10.6276 43.9915C11.013 44.3944 11.2255 44.9326 11.2195 45.4905C11.2135 46.0485 10.9896 46.5819 10.5956 46.9764C10.2016 47.371 9.66901 47.5953 9.11189 47.6013C8.55477 47.6073 8.01747 47.3945 7.61513 47.0085L2.95895 42.3418ZM7.61862 56.3418L2.95895 51.6752C2.58562 51.2704 2.38313 50.7366 2.39389 50.1856C2.40465 49.6347 2.62781 49.1093 3.01666 48.7194C3.4055 48.3295 3.92988 48.1054 4.47999 48.094C5.03011 48.0826 5.5633 48.2847 5.96793 48.6582L10.6276 53.3248C11.013 53.7278 11.2255 54.2659 11.2195 54.8238C11.2135 55.3818 10.9896 55.9152 10.5956 56.3098C10.2016 56.7043 9.66901 56.9286 9.11189 56.9346C8.55477 56.9406 8.01747 56.7278 7.61513 56.3418H7.61862ZM12.608 63C11.6811 63 10.7922 62.6312 10.1368 61.9749C9.48141 61.3185 9.11321 60.4283 9.11321 59.5V59.2958H9.12253C10.101 59.3025 11.0537 58.982 11.8296 58.3849C12.6055 57.7879 13.1603 56.9486 13.4059 56H39.4011V59.5C39.4011 60.4283 39.0329 61.3185 38.3775 61.9749C37.7221 62.6312 36.8332 63 35.9063 63H12.608ZM29.3991 67.6667L27.0693 65.3333H35.9063C37.4505 65.3315 38.931 64.7163 40.0229 63.6227C41.1148 62.5292 41.7291 61.0465 41.7309 59.5V31.493C41.7328 31.1848 41.8563 30.8898 42.0746 30.6726C42.2928 30.4553 42.5881 30.3333 42.8958 30.3333C43.5039 30.3333 43.9734 31.017 44.0794 31.7088L46.3755 44.3567L45.2373 52.3343C45.2165 52.4838 45.2244 52.6359 45.2606 52.7823L47.5905 62.1157C47.6416 62.321 47.7475 62.5085 47.8968 62.6582L52.8978 67.6667H29.3991Z" fill="white"></path> </svg> 