<?xml version="1.0" encoding="UTF-8"?> <svg xmlns="http://www.w3.org/2000/svg" width="63" height="63" viewBox="0 0 63 63" fill="none"> <path d="M60.3993 48.0594L48.0527 39.8251C46.4859 38.7885 44.3856 39.1296 43.2273 40.6088L39.6308 45.2333C39.1686 45.8427 38.3285 46.0195 37.6598 45.6481L36.9757 45.2709C34.7078 44.0347 31.8861 42.4956 26.2007 36.8078C20.5153 31.12 18.9732 28.2959 17.7371 26.032L17.362 25.3479C16.9854 24.6793 17.1589 23.8355 17.7686 23.3696L22.3896 19.7739C23.8681 18.6154 24.2097 16.5156 23.1744 14.9482L14.9406 2.60066C13.8795 1.00453 11.7508 0.525387 10.1082 1.51287L4.94532 4.61445C3.3231 5.56822 2.13294 7.11288 1.6244 8.92475C-0.234748 15.6993 1.16387 27.3911 18.3857 44.6162C32.0854 58.3157 42.2841 61.9998 49.294 61.9998C50.9073 62.0067 52.5142 61.7968 54.0716 61.3757C55.8837 60.8677 57.4285 59.6774 58.3816 58.0546L61.4861 52.8944C62.4749 51.2513 61.9961 49.1211 60.3993 48.0594ZM59.7345 51.8513L56.6372 57.0145C55.9528 58.1858 54.8418 59.047 53.5368 59.4178C47.2832 61.1348 36.3577 59.7126 19.824 43.1778C3.29034 26.6429 1.86837 15.7176 3.58529 9.46263C3.95648 8.15599 4.81869 7.04343 5.99133 6.35794L11.1542 3.26041C11.867 2.83153 12.7909 3.03942 13.2513 3.73205L17.724 10.4476L21.478 16.0785C21.9276 16.7584 21.7799 17.6696 21.1385 18.1727L16.5164 21.7683C15.1098 22.8439 14.7082 24.7902 15.5742 26.3349L15.9412 27.0018C17.2404 29.3846 18.8555 32.349 24.7524 38.2453C30.6492 44.1414 33.6124 45.7569 35.994 47.056L36.6618 47.424C38.2062 48.2899 40.1525 47.8884 41.228 46.4817L44.8234 41.8592C45.3266 41.2182 46.2374 41.0706 46.9175 41.5197L59.263 49.7541C59.9561 50.2142 60.164 51.1386 59.7345 51.8513Z" fill="white" stroke="white"></path> <path d="M35.5695 11.1701C45.1089 11.1807 52.8396 18.9119 52.8503 28.4521C52.8503 29.0136 53.3053 29.4686 53.8667 29.4686C54.4282 29.4686 54.8832 29.0136 54.8832 28.4521C54.8714 17.7895 46.2313 9.14864 35.5695 9.13696C35.008 9.13696 34.553 9.59205 34.553 10.1535C34.553 10.715 35.008 11.1701 35.5695 11.1701Z" fill="white" stroke="white"></path> <path d="M35.5695 17.2695C41.7419 17.2768 46.7439 22.2791 46.7512 28.4521C46.7512 29.0135 47.2063 29.4686 47.7677 29.4686C48.3291 29.4686 48.7841 29.0135 48.7841 28.4521C48.7757 21.1567 42.8642 15.2448 35.5695 15.2365C35.008 15.2365 34.553 15.6915 34.553 16.253C34.553 16.8145 35.008 17.2695 35.5695 17.2695Z" fill="white" stroke="white"></path> <path d="M35.5695 23.3689C38.375 23.3722 40.6486 25.646 40.6521 28.4519C40.6521 29.0134 41.1072 29.4684 41.6686 29.4684C42.2299 29.4684 42.685 29.0134 42.685 28.4519C42.6805 24.5237 39.4974 21.3402 35.5695 21.3358C35.008 21.3358 34.553 21.7909 34.553 22.3524C34.553 22.9138 35.008 23.3689 35.5695 23.3689Z" fill="white" stroke="white"></path> </svg> 