<?xml version="1.0" encoding="UTF-8"?> <svg xmlns="http://www.w3.org/2000/svg" width="75" height="65" viewBox="0 0 75 65" fill="none"> <path d="M74.8948 36.4847C74.8946 36.4843 74.8946 36.4841 74.8944 36.4837L60.7341 0.928388C60.4336 0.172928 59.5773 -0.195875 58.8218 0.104652C58.8213 0.104836 58.8207 0.10502 58.8202 0.105388L1.37363 22.9801C1.13935 23.0813 0.93618 23.2429 0.784721 23.4482C0.306969 23.6965 0.00515295 24.1879 0 24.7262V63.0052C0 63.8183 0.659209 64.4775 1.47227 64.4775H63.3077C64.1207 64.4775 64.7799 63.8183 64.7799 63.0052V42.099L74.0729 38.3977C74.8282 38.0964 75.1961 37.2399 74.8948 36.4847ZM61.8354 61.533H2.94454V26.1985H61.8354V61.533ZM24.5648 23.2613L49.2166 13.4383C51.4167 15.7508 54.4652 17.0652 57.6571 17.0777L60.1158 23.2613H24.5648ZM64.7799 38.9365V24.7262C64.7799 23.9131 64.1207 23.2539 63.3077 23.2539H63.2841L60.1644 15.4185C60.1298 15.3532 60.0895 15.2909 60.0436 15.233C59.8857 14.5239 59.2291 14.0401 58.5051 14.0993C55.5352 14.37 52.6298 13.119 50.786 10.7749C50.3272 10.2087 49.5208 10.0679 48.8971 10.4451C48.8271 10.4534 48.7578 10.4663 48.6895 10.4834L18.5933 22.4677C18.2291 22.6105 17.9378 22.8938 17.785 23.2539H8.64518L58.5434 3.38561L71.6157 36.2099L64.7799 38.9365Z" fill="white"></path> <path d="M6.94012 51.5936C9.79853 52.4385 12.0353 54.6725 12.8837 57.5298C13.0697 58.1535 13.6434 58.5808 14.2941 58.581C14.3705 58.5762 14.4463 58.5648 14.5208 58.5471C14.5869 58.5659 14.6545 58.5797 14.7225 58.5884H50.0571C50.1178 58.5805 50.1778 58.5681 50.2367 58.5516C50.9723 58.7304 51.7135 58.2794 51.8926 57.5438C51.8932 57.541 51.8939 57.5385 51.8944 57.5357C52.7406 54.6754 54.9777 52.4383 57.838 51.5921C58.5316 51.3801 58.9626 50.6889 58.848 49.9726C58.8677 49.9012 58.8818 49.8284 58.8907 49.7547V37.9766C58.882 37.9028 58.8673 37.8299 58.8465 37.7587C58.9619 37.0422 58.5307 36.3506 57.8365 36.1392C54.9763 35.2932 52.7397 33.0551 51.8959 30.1941C51.6828 29.4957 50.9848 29.0636 50.2646 29.1842C50.1965 29.1652 50.1272 29.1514 50.0571 29.1429H14.7225C14.6484 29.1518 14.5749 29.1665 14.5032 29.1871C13.7871 29.073 13.0962 29.5038 12.8837 30.1971C12.0369 33.0568 9.8 35.2932 6.94012 36.1392C6.24649 36.3512 5.81549 37.0424 5.93014 37.7587C5.911 37.8303 5.8972 37.903 5.88892 37.9766V49.7547C5.89738 49.8239 5.91118 49.8924 5.93014 49.9594C5.80941 50.6802 6.24134 51.3792 6.94012 51.5936ZM8.83346 38.5743C11.7898 37.3869 14.1329 35.0438 15.3203 32.0875H49.4578C50.6458 35.0438 52.9894 37.3869 55.9461 38.5743V49.157C52.9907 50.3457 50.648 52.6884 49.4593 55.6438H15.3203C14.1316 52.6884 11.7889 50.3457 8.83346 49.157V38.5743Z" fill="white"></path> <path d="M32.3898 52.6994C37.2685 52.6994 41.2234 48.7445 41.2234 43.8657C41.2234 38.987 37.2685 35.0321 32.3898 35.0321C27.511 35.0321 23.5562 38.987 23.5562 43.8657C23.5609 48.7424 27.5131 52.6946 32.3898 52.6994ZM32.3898 37.9766C35.6422 37.9766 38.2789 40.6133 38.2789 43.8657C38.2789 47.1182 35.6422 49.7548 32.3898 49.7548C29.1373 49.7548 26.5007 47.1182 26.5007 43.8657C26.5007 40.6133 29.1373 37.9766 32.3898 37.9766Z" fill="white"></path> <path d="M16.1952 46.0742C17.4148 46.0742 18.4036 45.0853 18.4036 43.8658C18.4036 42.6462 17.4148 41.6573 16.1952 41.6573C14.9756 41.6573 13.9868 42.6462 13.9868 43.8658C13.9868 45.0855 14.9756 46.0742 16.1952 46.0742ZM16.1952 43.1296C16.6018 43.1296 16.9314 43.4592 16.9314 43.8658C16.9314 44.2723 16.6018 44.6019 16.1952 44.6019C15.7887 44.6019 15.4591 44.2723 15.4591 43.8658C15.4591 43.4592 15.7887 43.1296 16.1952 43.1296Z" fill="white"></path> <path d="M48.5849 46.0742C49.8045 46.0742 50.7933 45.0853 50.7933 43.8658C50.7933 42.6462 49.8045 41.6573 48.5849 41.6573C47.3653 41.6573 46.3765 42.6462 46.3765 43.8658C46.3765 45.0855 47.3653 46.0742 48.5849 46.0742ZM48.5849 43.1296C48.9914 43.1296 49.321 43.4592 49.321 43.8658C49.321 44.2723 48.9914 44.6019 48.5849 44.6019C48.1783 44.6019 47.8487 44.2723 47.8487 43.8658C47.8487 43.4592 48.1783 43.1296 48.5849 43.1296Z" fill="white"></path> </svg> 