<?xml version="1.0" encoding="UTF-8"?> <svg xmlns="http://www.w3.org/2000/svg" width="91" height="57" viewBox="0 0 91 57" fill="none"> <path d="M83.8014 24.1643L81.4679 14.8304C82.1059 14.6949 82.5846 14.1289 82.5846 13.4508V11.9458C82.5846 8.67831 79.9262 6.02008 76.6588 6.02008H66.0301V2.91588C66.0301 1.30799 64.7221 0 63.1142 0H8.93561C7.32772 0 6.01973 1.30799 6.01973 2.91588V28.5003C6.01973 29.2794 6.65138 29.9112 7.43068 29.9112C8.20981 29.9112 8.84163 29.2796 8.84163 28.5003V2.91588C8.84163 2.86414 8.8837 2.8219 8.93561 2.8219H63.1141C63.166 2.8219 63.208 2.86432 63.208 2.91588V28.5006C63.208 29.2797 63.8397 29.9116 64.619 29.9116C65.3981 29.9116 66.03 29.2799 66.03 28.5006V26.9012H82.6736C82.675 26.9012 82.6761 26.9015 82.6773 26.9015C82.6787 26.9015 82.6799 26.9014 82.6812 26.9014C84.7292 26.9028 86.4682 28.247 87.0656 30.0994H82.6784C81.8992 30.0994 81.2674 30.731 81.2674 31.5103V34.5202C81.2674 36.9579 83.2505 38.941 85.6882 38.941H87.2873V45.1489H83.5981C82.3862 41.6494 79.0597 39.129 75.1535 39.129C71.2473 39.129 67.9207 41.6494 66.7089 45.1489H66.0296V34.52C66.0296 33.7409 65.3979 33.109 64.6186 33.109C63.8395 33.109 63.2077 33.7407 63.2077 34.52V45.1485H33.9348C32.7229 41.649 29.3964 39.1286 25.4902 39.1286C21.584 39.1286 18.2574 41.649 17.0456 45.1485H8.93561C8.8837 45.1485 8.84163 45.1061 8.84163 45.0545V41.9505H14.9555C15.7346 41.9505 16.3665 41.3189 16.3665 40.5396C16.3665 39.7602 15.7348 39.1286 14.9555 39.1286H7.43174C7.43139 39.1286 7.43121 39.1286 7.43086 39.1286C7.43051 39.1286 7.43033 39.1286 7.42998 39.1286H1.41095C0.631822 39.1286 0 39.7602 0 40.5396C0 41.3189 0.631646 41.9505 1.41095 41.9505H6.01991V45.0545C6.01991 46.6624 7.3279 47.9704 8.93579 47.9704H16.5571C16.5567 48.0017 16.5546 48.0331 16.5546 48.0644C16.5546 52.9914 20.5632 57 25.4902 57C30.4172 57 34.4258 52.9914 34.4258 48.0644C34.4258 48.0331 34.4237 48.0017 34.4234 47.9704H66.2204C66.22 48.0017 66.2179 48.0331 66.2179 48.0644C66.2179 52.9914 70.2265 57 75.1535 57C80.0805 57 84.0891 52.9914 84.0891 48.0644C84.0891 48.0331 84.087 48.0017 84.0867 47.9704H88.6983C89.4774 47.9704 90.1092 47.3388 90.1092 46.5595V31.51C90.1094 27.7944 87.3679 24.7072 83.8014 24.1643ZM66.0301 8.84181H76.6588C78.3704 8.84181 79.7628 10.2343 79.7628 11.9458V12.0398H66.0301V8.84181ZM66.0301 24.0794V14.8615H78.5671L80.8716 24.0794H66.0301ZM25.4902 54.1786C22.119 54.1786 19.3763 51.4361 19.3763 48.0647C19.3763 44.6934 22.119 41.9509 25.4902 41.9509C28.8614 41.9509 31.6041 44.6934 31.6041 48.0647C31.6041 51.4361 28.8614 54.1786 25.4902 54.1786ZM75.1539 54.1786C71.7827 54.1786 69.04 51.4361 69.04 48.0647C69.04 44.6934 71.7827 41.9509 75.1539 41.9509C78.5251 41.9509 81.2678 44.6934 81.2678 48.0647C81.2678 51.4361 78.5251 54.1786 75.1539 54.1786ZM87.2877 36.1191H85.6886C84.8068 36.1191 84.0895 35.4017 84.0895 34.52V32.9209H87.2875V36.1191H87.2877Z" fill="white"></path> <path d="M25.4901 45.1488C23.8822 45.1488 22.5742 46.4568 22.5742 48.0647C22.5742 49.6726 23.8822 50.9806 25.4901 50.9806C27.098 50.9806 28.406 49.6726 28.406 48.0647C28.406 46.4568 27.098 45.1488 25.4901 45.1488Z" fill="white"></path> <path d="M75.1539 45.1488C73.546 45.1488 72.238 46.4568 72.238 48.0647C72.238 49.6726 73.546 50.9806 75.1539 50.9806C76.7618 50.9806 78.0698 49.6726 78.0698 48.0647C78.0698 46.4568 76.7618 45.1488 75.1539 45.1488Z" fill="white"></path> <path d="M58.5993 39.1292H37.5298C36.7507 39.1292 36.1189 39.7608 36.1189 40.5401C36.1189 41.3194 36.7505 41.9511 37.5298 41.9511H58.5993C59.3784 41.9511 60.0102 41.3194 60.0102 40.5401C60.0102 39.7608 59.3786 39.1292 58.5993 39.1292Z" fill="white"></path> <path d="M22.4805 33.1093H4.42096C3.64183 33.1093 3.01001 33.7409 3.01001 34.5202C3.01001 35.2995 3.64166 35.9312 4.42096 35.9312H22.4805C23.2596 35.9312 23.8915 35.2995 23.8915 34.5202C23.8915 33.7409 23.2596 33.1093 22.4805 33.1093Z" fill="white"></path> <path d="M36.0248 7.52478C28.6082 7.52478 22.5742 13.5588 22.5742 20.9754C22.5742 28.392 28.6082 34.426 36.0248 34.426C43.4414 34.426 49.4754 28.392 49.4754 20.9754C49.4754 13.5588 43.4414 7.52478 36.0248 7.52478ZM36.0248 31.6042C30.1642 31.6042 25.3961 26.8362 25.3961 20.9755C25.3961 15.1149 30.1642 10.3469 36.0248 10.3469C41.8854 10.3469 46.6535 15.1149 46.6535 20.9755C46.6535 26.8362 41.8854 31.6042 36.0248 31.6042Z" fill="white"></path> <path d="M41.5375 24.4927L37.4359 20.3912V14.9558C37.4359 14.1766 36.8043 13.5448 36.025 13.5448C35.2457 13.5448 34.614 14.1764 34.614 14.9558V20.9757C34.614 21.3498 34.7626 21.7085 35.0273 21.9732L39.542 26.488C39.8175 26.7634 40.1786 26.9012 40.5396 26.9012C40.9006 26.9012 41.2619 26.7636 41.5371 26.488C42.0885 25.937 42.0885 25.0438 41.5375 24.4927Z" fill="white"></path> </svg> 