<?xml version="1.0" encoding="UTF-8"?> <svg xmlns="http://www.w3.org/2000/svg" width="106" height="101" viewBox="0 0 106 101" fill="none"> <path fill-rule="evenodd" clip-rule="evenodd" d="M53.0306 96.1393C56.7313 96.1393 60.1456 97.2237 63.1559 98.1804C65.17 98.8203 67.2488 99.4818 68.5226 99.4818C68.786 99.4818 68.8948 99.4507 68.9136 99.4448C69.9375 99.1131 71.7328 96.6533 73.0472 94.8562C74.866 92.3662 76.9271 89.5442 79.8128 87.4436C82.7278 85.3219 86.0738 84.2169 89.0253 83.2424C91.0095 82.5868 93.9945 81.6 94.6032 80.7649C95.1841 79.964 95.2071 76.7156 95.2206 74.7744C95.2412 71.647 95.2641 68.1104 96.3856 64.655C97.4753 61.3048 99.5023 58.5044 101.289 56.0328C102.605 54.2116 104.41 51.7182 104.41 50.5657C104.41 49.4124 102.608 46.9213 101.293 45.1019C99.5 42.625 97.4729 39.8223 96.3856 36.4738C95.2641 33.0195 95.2412 29.4829 95.2206 26.3615C95.2094 24.4185 95.1889 21.1683 94.6032 20.3656C93.9945 19.53 90.8872 18.5026 89.0271 17.8893C86.0738 16.9137 82.7278 15.8087 79.8128 13.6865C76.9271 11.5877 74.866 8.76372 73.0448 6.2733C71.7328 4.47674 69.9351 2.01697 68.9136 1.68468C68.8607 1.66817 68.7273 1.64815 68.5226 1.64815C67.2488 1.64815 65.17 2.3097 63.1559 2.94963C60.1456 3.90636 56.7313 4.99073 53.0306 4.99073C49.3258 4.99073 45.9134 3.90636 42.903 2.94963C40.8894 2.3097 38.809 1.64815 37.5352 1.64815C37.2742 1.64815 37.1624 1.67937 37.1423 1.68525C36.1226 2.01698 34.325 4.47674 33.013 6.2733C31.1936 8.76372 29.1312 11.5877 26.2473 13.6859C23.3317 15.8082 19.9856 16.9126 17.0324 17.8881C15.1736 18.502 12.0645 19.5288 11.4552 20.365C10.8712 21.1678 10.8508 24.4185 10.8383 26.3603C10.8183 29.4811 10.7942 33.0178 9.67219 36.4762C8.58544 39.8223 6.55789 42.6244 4.76959 45.0966C3.44992 46.9213 1.64805 49.4124 1.64805 50.5657C1.64805 51.7182 3.45162 54.2116 4.76891 56.0328C6.55721 58.5044 8.5843 61.3048 9.67275 64.6561C10.7937 68.1104 10.8172 71.647 10.8371 74.7679C10.8501 76.7115 10.8706 79.9623 11.4546 80.7649C12.0638 81.6012 15.1723 82.6279 17.0312 83.2419C19.9845 84.2169 23.3311 85.3219 26.2461 87.4442C29.1294 89.5424 31.1905 92.3633 33.0095 94.8531C34.3249 96.6533 36.1215 99.1131 37.1453 99.4454C37.1971 99.4624 37.3306 99.4818 37.5347 99.4818C38.8072 99.4818 40.8894 98.8203 42.903 98.1804C45.9134 97.2237 49.3258 96.1393 53.0306 96.1393ZM68.5226 100.346C67.1154 100.346 64.97 99.6642 62.8947 99.0043C59.9433 98.0664 56.5973 97.0031 53.0306 97.0031C49.4593 97.0031 46.1156 98.0664 43.1642 99.0043C41.0895 99.6642 38.9413 100.346 37.5347 100.346C37.2605 100.346 37.04 100.32 36.8789 100.267C35.5893 99.8488 33.8504 97.4671 32.3149 95.3671C30.5301 92.9243 28.5114 90.1611 25.7387 88.1428C22.9312 86.1004 19.6539 85.0178 16.7607 84.0628C13.8974 83.1166 11.4704 82.2551 10.7554 81.2731C10.0644 80.3234 9.99272 77.7682 9.97327 74.7744C9.9527 71.7153 9.93031 68.2493 8.85068 64.9226C7.80451 61.7017 5.81982 58.9589 4.06849 56.5391C2.52904 54.411 0.783691 51.9982 0.783691 50.5657C0.783691 49.133 2.52722 46.722 4.06555 44.5956C5.82039 42.1692 7.80508 39.4259 8.85012 36.2098C9.93099 32.8784 9.95383 29.4129 9.97384 26.3551C9.99385 23.3617 10.065 20.8067 10.7566 19.857C11.4711 18.8749 13.898 18.0135 16.7601 17.0684C19.6546 16.1122 22.9323 15.0295 25.7392 12.9866C28.5132 10.9683 30.5332 8.20384 32.3155 5.7634C33.8504 3.66225 35.5893 1.28072 36.8789 0.862614C37.0442 0.810153 37.2647 0.783691 37.5352 0.783691C38.943 0.783691 41.0895 1.4659 43.1642 2.12562C46.1156 3.0637 49.4593 4.12682 53.0306 4.12682C56.5973 4.12682 59.9433 3.0637 62.8947 2.12562C64.97 1.4659 67.1154 0.783691 68.5226 0.783691C68.709 0.783691 68.9742 0.797249 69.1765 0.861355C70.4684 1.2807 72.2073 3.66225 73.7416 5.7634C75.524 8.20384 77.5447 10.9683 80.3209 12.9878C83.1271 15.0301 86.4056 16.1128 89.2976 17.0684C92.1603 18.014 94.5872 18.8755 95.3023 19.8582C95.9945 20.8073 96.065 23.3617 96.0856 26.3551C96.1062 29.4148 96.1286 32.8802 97.2071 36.2074C98.2538 39.4265 100.238 42.1698 101.988 44.5903C103.532 46.722 105.274 49.133 105.274 50.5657C105.274 51.9982 103.53 54.411 101.99 56.5391C100.238 58.9589 98.2538 61.7017 97.2071 64.922C96.1286 68.2493 96.1062 71.7153 96.0856 74.7738C96.065 77.7717 95.9927 80.3245 95.3023 81.2731C94.5872 82.2534 92.1651 83.1149 89.3064 84.0593C86.4056 85.0179 83.1271 86.0999 80.3209 88.1422C77.5447 90.1629 75.5264 92.9272 73.744 95.366C72.2097 97.4671 70.4708 99.8488 69.1812 100.267C69.0177 100.319 68.7977 100.346 68.5226 100.346Z" fill="url(#paint0_linear)"></path> <defs> <linearGradient id="paint0_linear" x1="95.1617" y1="-46.5473" x2="-47.8419" y2="283.07" gradientUnits="userSpaceOnUse"> <stop stop-color="#69B21B"></stop> <stop offset="1" stop-color="#13704C"></stop> </linearGradient> </defs> </svg> 