<?xml version="1.0" encoding="UTF-8"?> <svg xmlns="http://www.w3.org/2000/svg" width="118" height="113" viewBox="0 0 118 113" fill="none"> <path fill-rule="evenodd" clip-rule="evenodd" d="M117.454 56.262C117.454 62.2837 110.834 67.187 109.07 72.6207C107.24 78.2525 109.651 86.0968 106.239 90.7842C102.793 95.5187 94.5658 95.6345 89.8319 99.0799C85.1439 102.491 82.5105 110.3 76.878 112.129C71.4455 113.893 64.7481 109.181 58.7274 109.181C52.7045 109.181 46.0083 113.893 40.574 112.129C34.9428 110.3 32.3088 102.491 27.6208 99.0794C22.8868 95.6339 14.6586 95.5181 11.2132 90.7835C7.80186 86.0961 10.2118 78.252 8.38288 72.6207C6.61866 67.187 0 62.2837 0 56.262C0 50.2397 6.61866 45.337 8.38288 39.9033C10.2118 34.2713 7.80186 26.4272 11.2132 21.7398C14.6592 17.0053 22.8868 16.8894 27.6213 13.4439C32.3093 10.0326 34.9428 2.22375 40.574 0.395425C46.0083 -1.3688 52.7045 3.34217 58.7274 3.34217C64.7481 3.34217 71.4455 -1.3688 76.878 0.395425C82.5105 2.22375 85.1439 10.0326 89.8319 13.4445C94.5658 16.89 102.795 17.0058 106.239 21.7403C109.651 26.4278 107.24 34.2719 109.07 39.9033C110.834 45.337 117.454 50.2397 117.454 56.262Z" fill="url(#paint0_linear)"></path> <defs> <linearGradient id="paint0_linear" x1="100.859" y1="-38.544" x2="-42.145" y2="283.244" gradientUnits="userSpaceOnUse"> <stop stop-color="#89E22A"></stop> <stop offset="1" stop-color="#1D664A"></stop> </linearGradient> </defs> </svg> 