<?xml version="1.0" encoding="UTF-8"?> <svg xmlns="http://www.w3.org/2000/svg" width="412" height="132" viewBox="0 0 412 132" fill="none"> <path fill-rule="evenodd" clip-rule="evenodd" d="M49.0149 1.83806C47.4869 2.9017 46.0426 3.77193 45.8052 3.77193C45.5677 3.77193 45.0408 4.50873 44.6349 5.40941C43.9517 6.92412 37.8539 11.9908 36.7142 11.9908C36.4528 11.9908 35.4331 12.7605 34.449 13.7013C33.465 14.6421 31.1294 16.3923 29.2589 17.5903C27.3883 18.7883 23.5103 21.5015 20.6403 23.6201C17.7704 25.7386 14.483 28.0598 13.335 28.7782C12.187 29.4969 10.3085 30.8619 9.16048 31.812C8.01247 32.7613 5.76243 34.3437 4.16047 35.3282C-1.05608 38.5322 -1.02531 38.4073 2.35916 42.6474C5.69873 46.8313 6.6323 47.1212 10.2041 45.0846C11.3521 44.4303 12.8784 43.6211 13.5959 43.2869C14.3134 42.9529 15.9096 42.0744 17.1436 41.3348C18.3772 40.5949 19.9035 39.7766 20.5354 39.5159C21.1668 39.2555 22.6232 38.5137 23.7712 37.8677C24.9192 37.2218 26.2106 36.5393 26.6412 36.3503C27.0716 36.1613 28.011 35.638 28.7283 35.1875C29.446 34.7368 31.0896 33.8237 32.381 33.1579C33.6726 32.492 35.5511 31.5019 36.5555 30.9577C37.5602 30.4132 39.7908 29.2709 41.5129 28.419C43.2346 27.5677 45.6535 26.242 46.8875 25.4741C48.1216 24.706 49.2523 24.0774 49.4004 24.0774C49.548 24.0774 51.6567 22.9896 54.0864 21.6601C56.5158 20.3306 58.8806 19.2428 59.3419 19.2428C59.8029 19.2428 61.9177 20.7115 64.0415 22.5062C67.8797 25.7498 73.6413 30.1338 77.3925 32.6647C79.8419 34.3171 80.2901 35.6928 78.9595 37.4733C78.4047 38.2159 77.4306 39.8389 76.7951 41.0803C76.1595 42.322 75.2985 43.5996 74.8826 43.9197C74.4662 44.2394 74.126 44.7135 74.126 44.9737C74.126 45.2333 72.8841 47.4364 71.3667 49.8699C69.8487 52.303 68.083 55.2729 67.4421 56.4695C66.8013 57.6661 65.7011 59.5154 64.998 60.579C64.2939 61.6427 63.36 63.1655 62.9215 63.9632C62.4828 64.7611 61.5174 66.3926 60.7755 67.5892C60.0334 68.7858 58.801 70.8034 58.036 72.073C57.271 73.342 56.1375 75.1913 55.5172 76.1823C52.6711 80.727 51.5957 83.1312 51.9448 84.1707C52.1416 84.7565 53.71 86.4299 55.4304 87.8891L58.5582 90.5421L60.4718 88.5702C62.1607 86.8297 65.3423 83.3261 73.8164 73.8742C75.1279 72.4118 77.3877 69.8011 78.8384 68.0727C80.2896 66.3443 83.1151 63.1897 85.1183 61.0626C87.1212 58.9352 90.7644 54.9655 93.2144 52.2413C95.6644 49.5163 98.0662 47.0938 98.5514 46.8568C99.2009 46.5397 100.603 47.0512 103.869 48.7965C106.309 50.0999 111.629 52.6937 115.692 54.5609C119.755 56.4276 123.196 58.2377 123.339 58.5827C123.67 59.3814 122.779 63.0611 121.822 64.8486C121.419 65.6011 121.084 66.689 121.078 67.2659C121.071 67.8426 120.601 69.2631 120.034 70.4219C119.466 71.5811 119 72.8865 118.999 73.3227C118.996 73.7593 118.668 74.6968 118.269 75.4058C117.869 76.1157 117.371 77.6385 117.163 78.7902C116.954 79.9422 116.461 81.3139 116.066 81.8385C115.672 82.3625 115.349 83.2289 115.349 83.7626C115.349 84.2969 114.908 85.8256 114.368 87.1604C112.651 91.4037 112.129 92.92 111.664 95.0192C111.414 96.1455 110.849 97.712 110.409 98.5005C109.969 99.2885 109.608 100.325 109.606 100.803C109.604 101.282 109.261 102.281 108.843 103.023C108.425 103.766 107.926 105.18 107.734 106.166C107.543 107.152 107.214 108.176 107.004 108.442C106.124 109.556 106.015 111.447 106.773 112.449C107.206 113.022 109.02 114.267 110.803 115.216C112.586 116.165 114.469 117.205 114.987 117.527C115.793 118.026 116.155 117.88 117.466 116.532C118.311 115.664 119.002 114.549 119.002 114.054C119.002 113.558 119.354 112.883 119.784 112.551C120.215 112.22 120.567 111.708 120.567 111.413C120.567 111.117 122.3 107.609 124.418 103.616C126.536 99.6228 129.144 94.6149 130.213 92.4878C131.283 90.3604 133.753 85.574 135.703 81.8514C137.652 78.1287 140.269 73.0693 141.517 70.6084C144.116 65.4881 144.859 65.043 148.691 66.3086C150.012 66.7451 152.15 67.3089 153.441 67.5613C154.733 67.8142 156.729 68.2405 157.877 68.5098C159.025 68.7791 161.96 69.3702 164.399 69.8248C171.321 71.1132 170.879 70.5389 170.44 77.6768C170.068 83.7113 169.378 101.461 168.764 120.82L168.447 130.779L169.685 131.087C171.944 131.647 178.848 131.445 179.423 130.802C179.721 130.47 180.125 128.566 180.321 126.572C180.516 124.578 180.993 121.749 181.378 120.287C181.765 118.824 182.234 116.214 182.423 114.485C182.612 112.757 183.095 110.115 183.497 108.614C183.899 107.113 184.228 105.177 184.228 104.31C184.228 103.444 184.685 100.539 185.243 97.8532C186.578 91.4222 187.737 84.7949 188.464 79.434C189.428 72.3181 187.468 73.0977 205.188 72.7769C221.965 72.4727 221.5 72.4027 222.335 75.3774C223.674 80.1452 224.377 82.4774 224.87 83.7854C225.17 84.5831 226.371 88.1729 227.539 91.7624C228.706 95.3521 229.903 98.9419 230.2 99.7395C230.496 100.537 231.049 102.169 231.427 103.366C231.807 104.562 232.358 106.194 232.653 106.992C232.947 107.789 233.546 109.638 233.984 111.101C234.421 112.563 235.161 114.848 235.629 116.177C236.096 117.507 236.658 119.356 236.878 120.287C237.097 121.218 237.668 122.675 238.147 123.526C238.626 124.377 239.018 125.638 239.018 126.328C239.018 127.018 239.57 128.094 240.244 128.718C241.29 129.687 241.844 129.819 244.027 129.619C245.434 129.489 247.171 129 247.889 128.532C248.998 127.809 249.216 127.242 249.348 124.744C249.433 123.128 249.139 120.508 248.696 118.922C248.252 117.336 247.889 115.337 247.889 114.479C247.889 112.991 247.374 110.077 245.496 100.948C245.031 98.6882 244.462 95.4246 244.231 93.6964C244 91.968 243.454 88.5957 243.019 86.2025C241.051 75.3967 240.481 71.6171 240.657 70.5244C240.853 69.2948 241.01 69.2392 249.454 67.4061C251.033 67.0632 253.146 66.5494 254.151 66.2637C255.155 65.9783 257.281 65.3775 258.875 64.9289C262.49 63.9105 264.019 64.1001 265.069 65.697C265.522 66.3851 267.003 68.3431 268.361 70.0481C272.413 75.1371 274.658 78.0315 276.589 80.6534C277.593 82.0178 279.472 84.4389 280.764 86.0339C282.056 87.6284 283.35 89.319 283.642 89.7909C283.932 90.2624 284.934 91.6058 285.867 92.7766C286.799 93.9472 288.656 96.3192 289.992 98.0476C291.328 99.7758 293.38 102.382 294.549 103.838C295.721 105.295 297.113 107.144 297.645 107.948C299.27 110.411 301.773 112.551 303.029 112.551C303.683 112.551 305.222 112.131 306.447 111.617C307.675 111.104 309.097 110.564 309.604 110.419C310.113 110.275 310.673 109.809 310.848 109.385C311.118 108.733 308.972 103.877 307.332 101.432C307.065 101.033 306.589 100.163 306.272 99.4979C305.957 98.8332 305.487 97.9631 305.231 97.5641C304.972 97.1651 304.624 96.5125 304.457 96.1138C304.292 95.7148 303.36 93.8656 302.391 92.0042C301.42 90.1429 300.384 88.0759 300.089 87.4112C299.794 86.7465 299.343 85.8763 299.09 85.4774C298.836 85.0787 298.115 83.6644 297.492 82.3349C296.865 81.0054 296.147 79.5913 295.897 79.1924C295.407 78.4125 293.438 74.7121 291.331 70.6017C290.61 69.2 289.82 67.9363 289.569 67.7932C289.318 67.6496 289.112 67.2147 289.112 66.8259C289.112 66.4372 288.172 64.3047 287.025 62.0871C285.878 59.8689 284.937 57.6062 284.937 57.0588C284.937 56.2727 286.223 55.4678 291.069 53.2183C297.815 50.0879 304.977 46.5314 306.578 45.5176C308.229 44.4738 309.459 44.746 311.828 46.6793C313.05 47.6767 316.452 50.3416 319.389 52.6019C322.329 54.8621 326.872 58.4159 329.488 60.4993C332.108 62.5824 335.905 65.4441 337.926 66.8587C339.95 68.273 341.937 69.8017 342.344 70.2557C342.75 70.7097 344.852 72.408 347.015 74.0299C349.178 75.6515 352.658 78.3467 354.746 80.019C356.836 81.6919 358.793 83.06 359.097 83.06C360.015 83.06 366.34 77.1624 366.34 76.3057C366.34 75.8657 365.608 74.8665 364.714 74.0855C363.821 73.3047 362.56 71.895 361.908 70.9537C361.257 70.0119 359.228 67.6966 357.401 65.8081C353.766 62.0546 350.25 58.1249 344.78 51.7022C342.823 49.4046 339.947 46.3225 338.388 44.8523C336.829 43.3822 335.554 42.0111 335.554 41.8052C335.554 41.3555 330.048 34.904 329.296 34.4745C329.007 34.3091 328.77 33.6884 328.77 33.0956C328.77 32.3017 330.246 30.9387 334.368 27.9269C337.447 25.6768 341.687 22.3674 343.791 20.5723C345.896 18.7777 347.948 17.3089 348.351 17.3089C348.755 17.3089 349.974 17.6667 351.06 18.1042C352.146 18.5418 353.738 19.1829 354.598 19.529C357.568 20.7232 362.432 22.6914 364.121 23.3837C365.054 23.7651 366.582 24.3645 367.515 24.7157C368.447 25.0666 370.385 25.8478 371.819 26.4514C375.54 28.0171 379.9 29.7805 385.648 32.0458C387.514 32.7812 389.262 33.5737 389.535 33.8068C389.807 34.0398 390.395 34.2318 390.84 34.2331C391.286 34.235 392.299 34.5507 393.095 34.9357C395.194 35.9495 403.963 39.4182 405.383 39.7964C406.663 40.1371 408.606 38.958 408.606 37.8403C408.606 37.5155 408.977 36.9651 409.427 36.618C409.878 36.2708 410.714 35.14 411.284 34.105C412.097 32.6295 412.189 32.074 411.705 31.5344C411.365 31.1558 410.895 30.846 410.658 30.846C410.421 30.846 408.395 29.7582 406.157 28.4287C403.916 27.0992 401.906 26.0113 401.689 26.0113C401.469 26.0113 400.121 25.2499 398.693 24.3191C397.262 23.3885 395.965 22.6271 395.806 22.6271C395.651 22.6271 394.3 21.8656 392.808 20.9349C391.316 20.0042 389.835 19.2428 389.518 19.2428C389.201 19.2428 388.566 18.8618 388.109 18.3967C387.653 17.9316 386.389 17.1155 385.3 16.5837C384.212 16.0519 381.45 14.4744 379.162 13.0786C376.874 11.6829 374.806 10.5404 374.563 10.5404C374.321 10.5404 373.489 10.1377 372.712 9.64554C368.653 7.0764 365.513 5.22231 365.218 5.22231C365.04 5.22231 362.938 4.02575 360.553 2.56326C354.214 -1.32331 354.568 -1.42532 345.206 6.986C340.902 10.8542 334.931 15.9016 331.941 18.2019C328.948 20.5027 325.405 23.2556 324.066 24.3191C322.727 25.3828 320.594 26.8501 319.33 27.5798C318.064 28.3092 315.503 29.9971 313.638 31.3304C311.772 32.6639 309.54 34.0881 308.68 34.4962C306.7 35.4345 304.114 36.8907 301.113 38.7569C298.282 40.5192 292.177 43.5771 285.46 46.6001C282.732 47.8268 279.879 49.1351 279.119 49.5072C278.355 49.8801 277.416 50.184 277.03 50.1832C276.644 50.1826 275.271 50.6493 273.98 51.22C270.049 52.9581 268.573 53.4937 266.841 53.8105C265.928 53.9778 264.901 54.427 264.559 54.8085C264.217 55.1902 263.369 55.5027 262.676 55.5027C261.982 55.5027 260.494 55.9377 259.369 56.4695C258.244 57.0014 256.711 57.4365 255.964 57.4365C255.216 57.4365 254.137 57.668 253.566 57.9509C252.995 58.2342 251.157 58.6702 249.481 58.9201C247.804 59.1706 245.763 59.699 244.943 60.095C244.124 60.491 242.788 60.8158 241.975 60.8177C241.162 60.8193 238.696 61.2288 236.496 61.7278C229.153 63.3924 219.938 63.9632 200.404 63.9632C181.251 63.9632 175.426 63.5929 165.96 61.774C163.23 61.2497 160.373 60.8207 159.611 60.8207C158.848 60.8207 157.128 60.3857 155.789 59.8539C154.45 59.322 152.494 58.8791 151.441 58.8699C150.389 58.8603 148.941 58.5416 148.223 58.1617C147.506 57.7818 146.44 57.4631 145.855 57.4535C145.27 57.4443 143.87 57.0014 142.744 56.4695C141.618 55.9377 140.215 55.5027 139.626 55.5027C139.036 55.5027 137.678 55.0675 136.607 54.5357C135.536 54.0038 134.287 53.5689 133.831 53.5689C133.374 53.5689 131.333 52.8072 129.294 51.8767C127.255 50.9459 125.323 50.1845 124.999 50.1845C124.292 50.1845 110.205 43.6037 109.089 42.7513C108.658 42.4221 107.718 41.8946 107 41.5794C106.283 41.2636 105.285 40.7866 104.782 40.5186C104.28 40.2507 103.548 39.8689 103.155 39.6692C101.111 38.6302 91.0795 32.219 87.5046 29.6658C77.7176 22.6764 59.1968 6.54992 56.6291 2.78132C54.2876 -0.655158 52.8518 -0.833073 49.0149 1.83806Z" fill="#FF1979"></path> </svg> 