<?xml version="1.0" encoding="UTF-8"?> <svg xmlns="http://www.w3.org/2000/svg" width="412" height="132" viewBox="0 0 412 132" fill="none"> <path fill-rule="evenodd" clip-rule="evenodd" d="M342.912 9.80556C336.969 15.1982 330.933 20.366 329.5 21.2895C328.063 22.2126 325.675 23.8895 324.188 25.0154C322.705 26.1417 320.5 27.7213 319.292 28.5258C310.203 34.5791 306.848 36.7228 305.487 37.347C304.627 37.7423 303.31 38.4425 302.564 38.9033C298.26 41.5594 297.854 41.7715 288.87 46.0494C284.608 48.0779 280.797 49.7375 280.399 49.7375C280.001 49.7375 278.907 50.1753 277.966 50.7108C277.026 51.2459 275.875 51.6848 275.408 51.6859C274.94 51.6867 274.266 52.0169 273.908 52.4193C273.551 52.8215 272.635 53.1506 271.873 53.1506C271.11 53.1506 269.929 53.5154 269.248 53.961C268.567 54.4067 267.164 54.9403 266.131 55.1471C264.117 55.5493 258.661 57.2438 256.944 57.9996C256.37 58.2522 254.96 58.5481 253.812 58.6565C252.664 58.7652 250.667 59.2001 249.375 59.6238C246.146 60.682 240.377 61.8173 236.408 62.1756C234.587 62.34 232.473 62.7246 231.71 63.031C229.824 63.7882 221.293 64.3406 206.312 64.6757C191.987 64.9959 179.288 64.3236 172.59 62.8895C170.12 62.3603 167.183 61.9181 166.065 61.9065C164.947 61.8946 163.092 61.569 161.944 61.1823C160.796 60.7961 159.332 60.4762 158.692 60.4724C158.053 60.4684 156.056 60.0487 154.256 59.54C152.455 59.031 149.338 58.1503 147.328 57.5821C145.319 57.0147 143.322 56.5461 142.892 56.5417C142.461 56.5369 141.653 56.211 141.096 55.817C140.538 55.4235 139.713 55.1012 139.261 55.1012C138.809 55.1012 137.563 54.6623 136.492 54.126C135.42 53.5895 134.24 53.1506 133.869 53.1506C133.498 53.1506 132.274 52.7119 131.147 52.1754C130.021 51.6391 128.825 51.2002 128.491 51.2002C128.156 51.2002 127.59 50.8711 127.232 50.4687C126.875 50.0666 126.152 49.7375 125.625 49.7375C124.816 49.7375 120.829 47.9145 111.68 43.3616C110.734 42.8908 109.593 42.2212 109.145 41.8739C108.212 41.1503 106.574 40.2335 105.027 39.5691C104.441 39.3173 103.649 38.7591 103.266 38.3289C102.884 37.8989 102.289 37.5468 101.944 37.5468C101.363 37.5468 98.89 35.9294 90.2246 29.8818C88.3876 28.5994 86.6046 27.4409 86.2622 27.3068C84.23 26.5109 61.0826 5.65883 58.9268 2.68193C57.2814 0.410565 55.6598 -0.00780449 53.6928 1.33121C52.9423 1.84224 51.976 2.42056 51.5454 2.6161C51.1147 2.81211 49.823 3.50503 48.6745 4.15649C47.5261 4.80796 46.1075 5.54231 45.5213 5.78904C44.935 6.03576 44.1433 6.5897 43.7608 7.01979C43.3786 7.44988 42.8502 7.80193 42.5872 7.80193C42.3241 7.80193 40.8877 8.56995 39.3958 9.50861C37.9034 10.4473 36.4227 11.2153 36.1043 11.2153C35.7864 11.2153 35.1004 11.6541 34.5813 12.1905C34.0618 12.7269 33.4486 13.1658 33.2183 13.1658C32.9887 13.1658 31.9985 13.6592 31.018 14.2629C29.3483 15.2908 27.524 16.3495 21.7927 19.616C20.5008 20.3528 18.8565 21.2193 18.1388 21.5421C17.4211 21.8649 16.3641 22.4944 15.7899 22.9411C15.2157 23.3873 13.9426 24.1684 12.9603 24.6766C11.9779 25.1847 9.28871 26.7524 6.98312 28.1602C4.67806 29.5678 2.52331 30.7201 2.19446 30.7201C1.86614 30.7201 1.1787 31.1525 0.666635 31.6807C-0.210812 32.5863 -0.213936 32.7334 0.609225 34.2408C3.56884 39.6632 4.37948 39.9425 9.0042 37.1347C14.6964 33.6794 16.8188 32.4454 18.1388 31.8237C18.8565 31.4851 20.0644 30.8245 20.8228 30.355C22.7474 29.1635 27.8168 26.2369 29.5128 25.3378C30.2906 24.9254 31.9843 23.9437 33.2762 23.1562C34.5682 22.3686 36.0948 21.4783 36.6691 21.1774C37.2431 20.877 38.4552 20.2129 39.3619 19.7023C40.2691 19.1913 42.1484 18.1415 43.5378 17.3686C44.9278 16.5962 47.2834 15.2221 48.7733 14.3146C50.2623 13.4076 52.2115 12.5294 53.104 12.3627C54.5981 12.0833 55.0599 12.3704 58.9232 15.9793C62.4492 19.2732 63.0357 20.0432 62.5967 20.799C61.9386 21.9322 50.2153 32.6247 34.1746 46.7214C27.3648 52.7065 21.7927 57.8636 21.7927 58.1819C21.7927 58.9953 26.8172 63.8809 27.6399 63.8677C28.0127 63.8617 29.9616 62.3995 31.9712 60.6182C35.3819 57.5942 53.2362 41.5868 64.6383 31.3297C68.159 28.1627 70.0303 26.8192 70.9208 26.8192C72.6768 26.8192 81.2982 33.3976 81.2982 34.7376C81.2982 35.2839 80.4113 36.6336 79.3284 37.7361C78.2446 38.8389 74.9662 42.5938 72.0429 46.0802C69.1199 49.5666 64.4543 55.0525 61.6761 58.2706C58.8976 61.489 56.0966 64.8902 55.4519 65.8288C54.8077 66.7675 53.636 68.0842 52.8482 68.7546C50.3606 70.8723 45.8038 76.4672 45.8038 77.404C45.8038 78.4708 49.9383 82.408 51.0585 82.408C52.192 82.408 57.4208 77.1987 63.294 70.2173C66.1143 66.8651 69.1177 63.4239 69.9693 62.5707C70.8206 61.7172 72.3672 59.9208 73.4059 58.5783C75.6557 55.6723 81.7653 48.5306 84.691 45.3868C85.8394 44.1526 87.4111 42.3859 88.1841 41.4599L89.5894 39.7773L91.3159 40.6159C92.2654 41.0778 94.4521 42.3288 96.1747 43.3967C97.897 44.4647 99.8351 45.5545 100.481 45.8192C101.127 46.0837 101.655 46.6467 101.655 47.0705C101.655 47.8288 98.5067 53.7012 97.4811 54.8559C97.1919 55.1812 96.339 56.5217 95.5857 57.8344C93.9811 60.6309 92.4121 63.2492 90.9548 65.5611C90.3805 66.4719 88.4336 69.5929 86.6277 72.496C84.8222 75.3998 83.1257 78.1047 82.8579 78.5071C82.5907 78.9092 81.7603 80.3357 81.0126 81.6765C80.2657 83.0175 79.2468 84.5536 78.7488 85.0899C78.2508 85.6264 77.5657 86.6137 77.2258 87.2841C76.8859 87.9548 76.3711 88.8875 76.0822 89.3567C73.6461 93.3106 72.3436 96.0322 72.6595 96.5095C72.8321 96.7708 74.0553 97.6667 75.3768 98.4999C79.1018 100.848 80.7158 100.233 82.8638 95.6463C83.1591 95.0159 84.1827 93.3701 85.139 91.9893C87.1803 89.0405 89.6718 85.1061 90.5879 83.3832C90.9448 82.7128 91.8072 81.2865 92.504 80.2137C93.2013 79.141 94.0309 77.8242 94.3477 77.288C94.6645 76.7514 95.4854 75.435 96.173 74.3622C96.8604 73.2894 98.0418 71.3145 98.7976 69.9737C99.5534 68.6326 100.47 67.2064 100.833 66.804C101.528 66.0346 104.836 60.6777 107.607 55.8327C108.067 55.0282 108.981 53.7428 109.638 52.9767L110.833 51.584L117.392 54.5498C121 56.1807 124.234 57.8339 124.58 58.2235C125.317 59.0519 124.419 62.5363 123.233 63.4561C122.849 63.7541 122.535 64.19 122.535 64.4245C122.535 64.8082 121.111 67.731 117.456 74.8498C116.768 76.1908 116.012 77.6171 115.777 78.0195C115.295 78.8454 111.478 86.2354 105.577 97.7681C103.382 102.059 101.366 105.951 101.098 106.416C99.5801 109.057 101.07 111.217 105.405 112.66C107.687 113.42 108.706 112.895 109.224 110.69C109.405 109.923 109.89 109.033 110.301 108.714C110.714 108.394 111.051 107.75 111.051 107.283C111.051 106.815 111.521 105.875 112.095 105.193C112.669 104.511 113.138 103.769 113.137 103.543C113.135 103.317 113.939 101.596 114.923 99.7184C115.907 97.8411 117.347 95.0392 118.123 93.4921C118.9 91.9444 119.74 90.5601 119.991 90.4157C120.241 90.2707 120.447 89.8626 120.447 89.5087C120.447 88.9159 122.48 84.6066 123.567 82.8956C123.822 82.4932 125.371 79.5309 127.009 76.3128C133.651 63.263 134.325 62.1659 135.657 62.2418C136.944 62.3146 140.972 63.5594 142.436 64.3363C142.903 64.584 144.195 64.9394 145.307 65.1257C148.48 65.6576 149.306 66.6041 148.886 69.2311C148.692 70.4442 148.204 72.1763 147.801 73.0806C147.397 73.9852 147.068 75.4807 147.068 76.4045C147.068 77.328 146.818 78.5192 146.513 79.0522C145.984 79.9741 144.986 83.669 143.828 88.9908C143.536 90.3318 142.975 92.3068 142.581 93.3793C142.186 94.4521 141.632 96.3172 141.351 97.5242C140.56 100.915 139.27 105.805 138.456 108.496C138.05 109.837 137.57 111.811 137.387 112.884C137.205 113.957 136.866 115.054 136.633 115.322C136.4 115.59 136.113 117.017 135.996 118.492C135.879 119.967 135.68 121.495 135.553 121.886C135.285 122.717 139.509 124.241 142.252 124.304C144.159 124.348 144.964 123.17 144.998 120.289C145.008 119.435 145.352 118.187 145.763 117.517C146.173 116.846 146.517 115.593 146.527 114.731C146.537 113.869 147.015 112.051 147.59 110.69C148.164 109.329 148.633 107.68 148.633 107.025C148.633 106.37 149.077 104.458 149.62 102.776C151.032 98.3996 151.783 95.6458 152.25 93.1356C152.474 91.9287 152.947 90.2832 153.3 89.4784C153.654 88.6738 154.128 87.0283 154.355 85.8214C154.582 84.6144 155.501 81.0069 156.398 77.8053C157.295 74.6031 158.029 71.4843 158.029 70.8737C158.029 69.0842 159.713 68.5785 162.88 69.4177C164.375 69.8141 167.347 70.3842 169.484 70.6846C174.573 71.3999 176.071 72.0898 175.922 73.6475C175.486 78.1774 174.621 83.5427 173.958 85.8214C173.53 87.2963 173.173 89.381 173.166 90.4538C173.16 91.5266 172.814 93.5959 172.4 95.0524C171.985 96.5095 171.491 99.2525 171.303 101.148C171.114 103.044 170.638 105.911 170.244 107.521C169.85 109.13 169.525 111.255 169.52 112.244C169.516 113.233 169.044 115.865 168.472 118.095C167.161 123.203 167.081 127.858 168.288 128.794C168.827 129.212 170.442 129.463 172.594 129.463H176.037L176.455 127.025C176.685 125.684 177.213 122.937 177.629 120.919C178.045 118.902 178.386 116.3 178.386 115.137C178.386 113.975 178.754 111.7 179.203 110.08C179.652 108.461 180.225 105.577 180.475 103.671C180.725 101.766 181.273 98.5605 181.692 96.549C182.718 91.6318 183.675 86.2051 184.143 82.6517C185.515 72.2493 185.029 72.7394 193.612 73.1071C197.25 73.2626 200.421 73.5723 200.659 73.7946C200.898 74.0169 201.21 87.0726 201.353 102.807L201.614 131.414H205.79H209.966L210.227 102.807C210.371 87.0726 210.672 74.0271 210.897 73.817C211.389 73.3578 223.778 72.0971 224.72 72.4108C225.654 72.7218 226.328 74.6178 226.941 78.6631C227.232 80.5886 227.944 84.907 228.522 88.2595C229.101 91.6118 229.926 96.4392 230.358 98.9872C230.788 101.535 231.384 104.826 231.68 106.301C231.977 107.776 232.45 110.41 232.732 112.153C233.013 113.896 233.483 116.529 233.777 118.004C234.071 119.479 234.533 122.442 234.803 124.587C235.503 130.135 235.278 129.88 239.212 129.585C243.937 129.231 244.27 128.871 244.039 124.377C243.935 122.347 243.453 118.821 242.97 116.542C242.486 114.262 241.712 109.764 241.251 106.545C240.789 103.327 239.96 98.7189 239.409 96.3051C238.857 93.8915 238.405 91.1485 238.402 90.2099C238.4 89.2712 238.034 87.077 237.588 85.3338C236.813 82.3031 235.77 75.4831 235.616 72.4357C235.536 70.871 235.348 70.9572 241.546 69.7249C243.125 69.4109 245.938 68.8457 247.797 68.4687C252.765 67.4625 253.289 67.7691 254.109 72.1679C254.532 74.4349 255.168 76.872 256.504 81.339C256.929 82.7631 257.482 84.9573 257.731 86.2154C258.216 88.6603 258.931 91.4046 260.106 95.3299C261.622 100.399 262.496 103.704 262.992 106.243C263.274 107.685 263.748 109.291 264.045 109.81C264.343 110.33 264.775 111.783 265.005 113.039C265.235 114.295 265.724 116.42 266.091 117.76C266.458 119.101 266.967 121.022 267.222 122.027C267.598 123.516 267.919 123.856 268.945 123.856C269.638 123.856 270.745 123.651 271.404 123.402C272.064 123.152 273.25 122.819 274.039 122.661C275.426 122.384 275.474 122.268 275.474 119.199C275.474 117.452 275.122 115.235 274.691 114.272C274.261 113.309 273.908 111.766 273.908 110.842C273.908 109.918 273.629 108.684 273.288 108.098C272.948 107.512 272.5 105.889 272.292 104.49C272.085 103.092 271.542 101.248 271.085 100.392C270.628 99.5372 270.254 98.1651 270.254 97.3438C270.254 96.5222 269.922 94.9651 269.514 93.8831C269.107 92.8017 268.259 89.7223 267.629 87.0405C266.999 84.3583 266.062 80.7378 265.545 78.9947C263.956 73.6293 263.42 71.5462 262.869 68.5931C262.255 65.2934 262.909 64.1611 265.741 63.6199C266.644 63.4474 269.212 62.6359 271.448 61.8167L275.511 60.3275L276.798 61.4562C277.505 62.0777 278.084 62.8198 278.084 63.1064C278.084 63.8422 282.78 72.5976 283.353 72.9276C283.612 73.0779 283.826 73.5688 283.826 74.0185C283.826 74.4685 285.786 78.5698 288.183 83.1325C290.577 87.6957 293.252 92.8552 294.123 94.5984C299.574 105.486 303.819 113.128 304.412 113.128C305.515 113.128 308.499 111.843 310.055 110.699C311.915 109.333 311.864 108.452 309.71 104.471C305.189 96.1169 298.441 83.0989 298.441 82.7287C298.441 82.5026 297.971 81.7598 297.397 81.0783C296.824 80.396 296.353 79.456 296.353 78.9887C296.353 78.5211 296 77.8659 295.571 77.5316C295.139 77.1976 294.786 76.6492 294.786 76.3117C294.786 75.7457 292.737 71.4189 291.671 69.7298C291.415 69.3276 290.226 67.0236 289.029 64.6097C287.832 62.1961 286.641 59.8921 286.379 59.4897C285.193 57.6519 285.246 57.3438 286.977 55.992C287.949 55.2337 289.04 54.6136 289.402 54.6136C289.764 54.6136 292.203 53.5841 294.817 52.3258C298.516 50.5463 299.766 50.151 300.443 50.5463C301.222 51.0023 305.985 57.9388 308.087 61.6839C308.538 62.4887 309.198 63.5859 309.548 64.1221C309.902 64.6587 311.194 66.7431 312.424 68.7546C313.652 70.766 314.868 72.741 315.124 73.1431C316.035 74.5642 319.205 79.7543 320.486 81.9204C321.201 83.1271 322.228 84.8067 322.771 85.6521C326.786 91.9106 328.715 95.1046 328.715 95.4914C328.715 95.7391 329.093 96.234 329.553 96.5909C330.015 96.9484 330.597 97.7486 330.85 98.3703C331.59 100.191 332.659 100.165 336.044 98.243C339.622 96.2145 340.181 95.4386 338.973 94.1917C338.516 93.7198 337.517 92.2467 336.757 90.9184C334.992 87.8455 333.461 85.3035 331.991 83.0043C331.351 82.0056 330.591 80.6873 330.301 80.0737C330.009 79.4609 328.709 77.4391 327.412 75.5813C326.112 73.7234 324.801 71.7017 324.497 71.0889C323.885 69.8523 323.139 68.6113 320.088 63.7438C318.946 61.9265 317.655 59.8418 317.212 59.1114C316.772 58.3809 315.823 56.9055 315.108 55.8327C314.389 54.7599 313.518 53.3336 313.173 52.663C312.825 51.9926 312.304 51.0599 312.018 50.5907C311.728 50.1215 311.255 49.3532 310.968 48.884C308.889 45.4955 309.078 44.8181 312.602 42.9394C313.891 42.2534 316.096 40.9948 317.502 40.1429C319.328 39.0344 320.299 38.7161 320.915 39.0239C321.385 39.2597 323.08 40.9439 324.681 42.7669C326.282 44.5891 328.311 46.7249 329.196 47.5124C330.082 48.2999 330.803 49.1609 330.803 49.4251C330.803 49.6891 331.936 51.1294 333.316 52.6251C334.697 54.1211 338.962 59.0754 342.79 63.6346C346.62 68.1937 350.598 72.8248 351.631 73.9257C352.664 75.0264 354.626 77.268 355.987 78.9065C359.612 83.2612 359.896 83.3256 363.378 80.5891C364.985 79.3286 366.299 78.0536 366.299 77.7555C366.299 77.1695 363.312 73.4665 359.414 69.2241C358.07 67.7589 356.191 65.5435 355.239 64.3006C353.315 61.7883 349.699 57.6191 343.934 51.2754C341.826 48.9543 339.97 46.7263 339.808 46.3241C339.644 45.9217 338.199 44.2434 336.593 42.5946C332.765 38.6629 329.864 34.9596 329.516 33.5553C329.294 32.6648 329.628 32.1699 331.098 31.2077C332.122 30.5373 334.296 28.948 335.927 27.677C337.559 26.4051 339.365 25.3675 339.939 25.371C340.537 25.3743 342.982 27.1872 345.685 29.6333C348.268 31.9744 355.08 38.0582 360.82 43.1534C366.56 48.2482 373.971 54.8862 377.286 57.9039C380.602 60.9213 383.697 63.3906 384.162 63.3906C385.042 63.3906 389.788 58.5516 389.788 57.6543C389.788 57.373 384.093 52.0237 377.13 45.767C357.371 28.0093 348.029 19.3464 348.029 18.7812C348.029 17.9098 355.559 11.2153 356.539 11.2153C357.042 11.2153 359.103 12.1476 361.112 13.2877C363.122 14.4277 365.566 15.7989 366.546 16.3353C368.81 17.5753 373.882 20.5011 375.421 21.4553C376.07 21.8576 378.102 23.0186 379.934 24.0353C384.157 26.3797 384.44 26.5447 389.56 29.623C391.901 31.0308 393.981 32.1829 394.178 32.1829C394.379 32.1829 396.113 33.1294 398.036 34.286C402.783 37.1425 406.307 39.0096 406.947 39.0096C407.593 39.0096 410.661 36.0224 410.664 35.391C410.667 35.1438 411.026 34.5724 411.463 34.1202C412.56 32.9871 411.978 31.923 409.712 30.9294C408.659 30.4664 406.151 29.0821 404.141 27.8533C402.131 26.6247 399.665 25.2077 398.66 24.705C397.655 24.2021 396.363 23.417 395.79 22.9601C395.217 22.5027 394.159 21.8654 393.44 21.5431C392.722 21.2208 391.431 20.524 390.57 19.9944C389.71 19.4649 388.535 18.8022 387.959 18.5223C387.386 18.2419 385.273 17.035 383.263 15.8399C381.253 14.6452 379.104 13.4584 378.486 13.2028C377.868 12.9473 377.197 12.4919 376.999 12.1905C376.799 11.8892 376.131 11.4347 375.513 11.1802C374.895 10.9256 373.45 10.1674 372.3 9.49495C371.154 8.82253 369.734 8.07988 369.149 7.84436C368.562 7.60884 367.768 7.06368 367.387 6.63359C367.006 6.2035 366.399 5.85146 366.037 5.85146C365.678 5.85146 365.09 5.52232 364.731 5.12003C364.375 4.71774 363.679 4.3886 363.184 4.3886C362.688 4.3886 361.858 3.94972 361.341 3.41335C360.82 2.87696 360.208 2.43811 359.977 2.43811C359.748 2.43811 358.693 1.88954 357.635 1.21904C356.578 0.548565 355.264 0 354.712 0C354.12 0 349.326 3.98385 342.912 9.80556Z" fill="#FF1979"></path> </svg> 