<?xml version="1.0" encoding="UTF-8"?> <svg xmlns="http://www.w3.org/2000/svg" width="412" height="140" viewBox="0 0 412 140" fill="none"> <path fill-rule="evenodd" clip-rule="evenodd" d="M45.9917 1.87711C44.1631 2.9009 42.0493 4.12756 41.2949 4.60307C40.5408 5.07858 39.4175 5.68169 38.7998 5.94286C38.1818 6.20455 37.5268 6.64867 37.3447 6.93078C37.1621 7.21289 35.8298 8.01088 34.3842 8.70422C32.9386 9.39805 30.5406 10.7219 29.0555 11.6465C27.5701 12.5711 25.218 13.9737 23.8288 14.7632C19.552 17.1946 12.716 21.1861 10.6984 22.4297C10.0314 22.8409 8.11462 23.939 6.43889 24.8695C2.52431 27.0437 0 28.8843 0 29.5648C0 30.4156 2.69444 33.9021 3.78046 34.4575C4.52047 34.8354 5.11698 34.7351 6.167 34.0557C6.93727 33.5572 8.15426 32.8619 8.87183 32.5112C10.3691 31.778 11.3367 31.2137 14.6125 29.1641C15.9041 28.3561 18.0177 27.1559 19.3093 26.4969C20.6009 25.838 22.0283 24.9897 22.4818 24.6119C22.9348 24.2341 23.5443 23.925 23.836 23.925C24.1277 23.925 24.7916 23.4764 25.3109 22.9281C25.8301 22.3799 26.4715 21.9313 26.7356 21.9313C26.9996 21.9313 28.9007 20.8701 30.9601 19.5726C33.0193 18.2757 35.6998 16.7146 36.9163 16.1035C38.1334 15.4929 40.5266 14.1063 42.2353 13.0222C47.213 9.86408 46.5986 9.69511 54.1507 16.2999C57.8492 19.5343 63.1471 23.9624 65.9247 26.14C68.7027 28.3176 70.9748 30.4764 70.9748 30.937C70.9748 31.9822 67.8915 36.1736 64.4296 39.834C62.9828 41.3642 60.7711 43.9622 59.5156 45.607C58.2599 47.2519 56.4292 49.4947 55.4466 50.5913C54.4636 51.6879 52.918 53.5188 52.0105 54.6601C50.195 56.9445 44.3515 63.8658 41.4884 67.1247C40.4843 68.2674 39.6625 69.4244 39.6625 69.6952C39.6625 69.9656 40.8662 71.1495 42.338 72.3264L45.0138 74.4662L46.3826 72.9648C47.1356 72.1389 49.2011 69.7952 50.9733 67.7562C52.7452 65.7176 55.7725 62.2547 57.7003 60.0616C59.6281 57.8685 61.7276 55.2856 62.3659 54.3221C63.0043 53.3588 63.9143 52.2631 64.3886 51.8874C64.8627 51.5114 67.4611 48.4869 70.1628 45.1659C72.8639 41.8449 75.9118 38.3562 76.9346 37.4133L78.795 35.6992L80.4948 36.5613C82.4075 37.5315 83.3259 38.0597 86.4902 40.0096C87.7045 40.7582 88.8787 41.3708 89.0994 41.3708C89.3208 41.3714 90.7928 42.2222 92.3715 43.2619C93.9502 44.3016 98.3516 46.6 102.153 48.3704C109.887 51.9709 110.363 52.5069 108.62 55.6531C108.036 56.7073 106.711 59.3638 105.676 61.5569C104.641 63.7501 103.587 65.8811 103.335 66.2922C103.082 66.7034 102.258 68.2735 101.505 69.7812C100.751 71.2892 99.9136 72.859 99.6439 73.2704C99.3741 73.6815 98.9128 74.5788 98.6189 75.264C97.8461 77.0663 97.0569 78.6578 92.9335 86.7361C90.9025 90.7156 89.2403 94.1573 89.2403 94.3852C89.2403 94.6124 88.7559 95.4482 88.1638 96.2427C87.5714 97.0367 87.217 97.8881 87.3763 98.1343C87.5355 98.3806 88.8631 99.1795 90.3263 99.9103C92.7735 101.132 93.0828 101.179 94.1851 100.489C94.8443 100.077 96.4809 97.5407 97.8216 94.8537C99.1628 92.1665 100.481 89.6314 100.753 89.2203C101.024 88.8092 101.487 87.9118 101.78 87.2267C102.518 85.5055 103.914 82.6428 104.455 81.7439C104.701 81.3325 105.034 80.6597 105.194 80.2485C105.515 79.4271 107.422 75.4525 108.066 74.2672C108.289 73.856 110.032 70.4916 111.939 66.7905C113.846 63.0897 115.628 59.7252 115.9 59.3141C116.171 58.9029 116.647 57.9498 116.958 57.1957C117.651 55.5154 119.452 55.384 123.065 56.7486C124.41 57.2564 127.154 58.1482 129.164 58.7295C131.173 59.3105 133.974 60.1284 135.388 60.5472C136.803 60.9655 138.682 61.3154 139.564 61.3242C140.445 61.3332 142.458 61.7743 144.037 62.3048C145.616 62.8349 147.89 63.2763 149.091 63.2851C151.779 63.3057 153.708 63.9669 154.128 65.0126C154.303 65.4474 154.19 66.9785 153.878 68.4156C153.565 69.8521 153.135 72.8216 152.921 75.0147C152.708 77.2078 152.147 80.3027 151.677 81.8928C151.206 83.4822 150.819 85.8374 150.815 87.1264C150.812 88.4148 150.462 90.7033 150.039 92.211C149.615 93.7187 149.265 95.8217 149.262 96.8842C149.258 97.9469 148.802 100.751 148.246 103.115C146.983 108.496 146.558 114.448 147.39 115.108C147.722 115.371 149.126 115.829 150.51 116.125C153.61 116.789 154.278 116.363 154.633 113.498C154.967 110.806 156.294 103.058 157.299 97.9431C157.729 95.7499 158.324 92.2734 158.619 90.2171C158.915 88.1611 159.397 85.1331 159.692 83.4882C160.517 78.8697 161.733 71.2801 162.059 68.7005C162.497 65.2391 162.87 65.0959 170.541 65.4433C174.191 65.6085 181.631 65.5315 187.076 65.2729C198.212 64.743 197.927 64.6696 198.794 68.2858C199.09 69.5195 199.708 71.9869 200.17 73.7686C200.631 75.5506 201.214 78.4086 201.465 80.1194C201.718 81.8305 202.168 83.6663 202.466 84.1992C202.764 84.7313 203.009 85.6635 203.009 86.2695C203.009 87.4848 204.608 94.4415 206.176 100.051C206.73 102.033 207.184 104.239 207.184 104.953C207.184 106.183 207.528 107.729 209.781 116.634C210.301 118.69 211.001 121.718 211.336 123.363C212.985 131.45 213.533 134.068 214.155 136.821L214.829 139.812L217.661 139.957C222.061 140.184 222.494 139.654 221.868 134.812C221.584 132.627 221.013 129.494 220.598 127.849C220.183 126.204 219.443 122.952 218.953 120.622C218.025 116.208 216.394 109.027 215.445 105.17C215.14 103.937 214.601 101.469 214.246 99.6874C213.891 97.9057 213.343 95.4383 213.028 94.2046C212.714 92.9712 211.953 89.6067 211.338 86.7282C210.723 83.8496 209.986 80.5973 209.7 79.5007C209.413 78.4042 208.995 76.2504 208.769 74.7149C208.544 73.1791 208.098 71.1605 207.778 70.2289C207.458 69.2972 207.134 67.4193 207.059 66.0551L206.923 63.5742L212.142 62.3998C215.012 61.7545 218.065 60.9957 218.926 60.7146C219.787 60.434 221.431 60.0473 222.579 59.8555C223.727 59.6639 225.958 59.0964 227.537 58.5938C231.542 57.3194 235.303 56.087 237.452 55.345C241.125 54.077 241.926 54.1248 243.088 55.6839C243.682 56.4806 244.323 57.7261 244.514 58.4517C244.705 59.1775 245.19 60.0327 245.593 60.3513C245.995 60.6703 246.329 61.2964 246.336 61.7425C246.342 62.189 246.806 63.1147 247.368 63.8001C247.93 64.4852 248.394 65.3023 248.4 65.6159C248.411 66.1532 255.011 79.252 257.155 82.99C257.469 83.5382 258.954 86.4539 260.454 89.4696C263.003 94.5959 267.292 102.982 268.228 104.672C268.455 105.083 269.986 108.111 271.629 111.401C273.272 114.691 274.812 117.719 275.05 118.13C275.288 118.541 276.1 120.111 276.853 121.619C277.608 123.127 278.44 124.696 278.704 125.108C279.776 126.78 281.811 130.974 281.811 131.511C281.811 131.827 282.273 132.527 282.838 133.066C283.826 134.01 283.938 134.015 285.839 133.19C289.53 131.592 290.421 130.759 289.809 129.483C288.355 126.453 283.253 116.296 282.855 115.638C282.604 115.226 281.783 113.656 281.029 112.148C280.274 110.641 279.439 109.071 279.169 108.659C278.899 108.248 278.445 107.351 278.158 106.666C277.871 105.98 277.401 105.083 277.112 104.672C276.822 104.261 276.446 103.588 276.275 103.177C275.602 101.564 273.805 97.9629 267.695 85.9804C264.201 79.127 259.583 70.0428 257.434 65.7937C255.284 61.5446 253.322 57.7316 253.072 57.3202C252.083 55.6899 250.499 52.176 250.499 51.6117C250.499 50.8062 252.73 48.8494 253.664 48.836C254.076 48.8299 255 48.3864 255.718 47.8499C256.435 47.3137 257.405 46.8701 257.872 46.8641C258.339 46.858 259.013 46.5167 259.371 46.1056C259.729 45.6941 260.351 45.3578 260.754 45.3578C261.157 45.3578 263.965 43.9561 266.993 42.2426C270.02 40.5296 273.293 38.6789 274.264 38.1306C275.235 37.5823 277.142 36.4816 278.501 35.6846L280.973 34.2352L282.986 36.4019C284.093 37.5936 286.284 40.1525 287.854 42.0881C291.493 46.5736 294.402 50.0177 299.037 55.3266C301.072 57.6569 303.839 60.935 305.189 62.6117C306.539 64.2885 309.523 67.8384 311.82 70.5001C314.117 73.1616 316.527 76.0517 317.182 76.9218C317.836 77.7921 319.434 79.7376 320.736 81.2453C322.036 82.7531 324.322 85.4791 325.811 87.3034C330.045 92.4891 334.561 97.7779 336.384 99.6874C337.297 100.647 338.934 102.666 340.017 104.173C342.341 107.405 349.039 114.641 349.71 114.641C350.737 114.641 354.353 110.984 354.353 109.945C354.353 109.346 353.529 108.094 352.524 107.164C351.522 106.234 350.698 105.228 350.698 104.929C350.698 104.629 349.331 102.911 347.658 101.112C345.985 99.3123 344.056 97.0776 343.374 96.1465C342.222 94.5775 337.901 89.474 331.259 81.834C329.75 80.1015 328.403 78.3838 328.258 78.0169C328.116 77.65 326.549 75.7026 324.781 73.69C318.278 66.2928 314.634 62.009 313.242 60.1336C312.46 59.0769 310.979 57.2825 309.949 56.1461C308.922 55.01 306.748 52.3983 305.119 50.3423C303.491 48.286 300.278 44.4731 297.985 41.8688C291.61 34.6378 288.595 30.8298 288.595 30.0114C288.595 29.2025 289.391 28.4998 297.208 22.4133C300.078 20.1778 304.245 16.6927 306.47 14.669C312.622 9.07155 312.469 9.13287 315.806 10.9317C317.346 11.7596 319.308 12.7779 320.169 13.1941C321.031 13.6108 322.557 14.4348 323.562 15.0254C326.349 16.6643 331.301 19.2995 334.781 20.9972C336.504 21.8375 338.853 23.0597 340 23.7132C341.15 24.3671 342.675 25.1741 343.394 25.507C344.109 25.8395 345.05 26.3728 345.481 26.6923C345.91 27.0118 347.789 28.0626 349.654 29.0275C357.045 32.8501 358.869 33.8026 360.876 34.889C362.023 35.5112 364.255 36.674 365.834 37.4729C367.412 38.2724 369.408 39.3321 370.268 39.8288C372.668 41.2109 375.421 42.6823 380.365 45.2253C382.848 46.5021 385.821 48.0612 386.968 48.6892C388.118 49.3175 389.643 50.1016 390.362 50.4325C391.08 50.7628 392.018 51.2946 392.449 51.6142C393.176 52.1534 395.061 53.1579 403.148 57.3128C404.871 58.198 406.555 59.1371 406.897 59.4004C407.315 59.7247 407.855 59.5523 408.573 58.8658C410.296 57.2221 412.404 53.748 411.933 53.3327C411.471 52.9251 404.445 49.271 401.224 47.7617C400.166 47.2659 399.164 46.6489 398.994 46.39C398.827 46.1308 398.05 45.604 397.265 45.2181C395.567 44.3829 389.958 41.5363 388.666 40.855C388.162 40.5903 387.341 40.1525 386.837 39.8824C386.336 39.6122 385.189 39.0744 384.293 38.6871C383.397 38.2999 382.5 37.7357 382.305 37.4336C382.11 37.1316 381.612 36.8843 381.2 36.8843C380.785 36.8843 379.304 36.0993 377.907 35.1399C376.507 34.1802 375.087 33.3953 374.753 33.3953C374.416 33.3953 373.506 32.9935 372.726 32.5032C370.299 30.9708 369.28 30.4082 367.565 29.6546C366.652 29.2528 365.756 28.6966 365.578 28.4185C365.397 28.1403 364.929 27.9125 364.539 27.9125C364.15 27.9125 361.872 26.8434 359.481 25.5369C357.09 24.2305 354.548 22.8758 353.83 22.5269C353.112 22.1774 352.054 21.6202 351.48 21.2882C350.904 20.9568 348.908 19.8284 347.043 18.7811C345.181 17.7339 343.302 16.6777 342.87 16.434C342.442 16.1908 340.679 15.3085 338.956 14.4741C335.66 12.8776 334.627 12.3149 332.322 10.8609C331.546 10.3705 330.577 9.96876 330.171 9.96876C329.764 9.96876 329.152 9.64825 328.812 9.25698C328.473 8.86571 327.092 7.98744 325.747 7.30559C324.4 6.62372 322.242 5.49379 320.954 4.79449C319.662 4.09467 317.9 3.18303 317.037 2.76832C316.177 2.35313 315.121 1.81981 314.69 1.58305C312.63 0.449604 311.5 0 310.709 0C310.233 0 306.517 3.08434 302.453 6.85353C293.088 15.5343 277.712 27.9125 276.293 27.9125C276.087 27.9125 274.914 28.6974 273.689 29.6571C272.462 30.6165 271.215 31.4014 270.915 31.4014C270.616 31.4014 268.542 32.5837 266.306 34.0293C264.071 35.4744 260.363 37.5801 258.066 38.7091C255.77 39.8381 253.187 41.107 252.326 41.5297C246.665 44.3085 243.031 45.8563 242.166 45.8563C241.617 45.8563 241.032 46.0641 240.868 46.3183C240.704 46.5725 239.692 47.0381 238.619 47.353C237.547 47.6677 235.965 48.2209 235.104 48.5823C231.609 50.0485 227.718 51.3402 226.744 51.3564C226.175 51.3666 225.123 51.695 224.406 52.0866C223.688 52.4785 222.413 52.807 221.572 52.8169C220.731 52.8265 218.617 53.2591 216.875 53.7785C213.236 54.863 208.306 55.835 203.792 56.3577C191.685 57.7605 188.958 57.883 174.153 57.6926C165.483 57.581 157.097 57.238 155.518 56.9299C153.94 56.6224 150.887 56.1101 148.734 55.7916C139.377 54.407 133.886 53.2118 130.888 51.9072C129.541 51.3207 127.863 50.8406 127.158 50.8406C126.455 50.8406 124.153 50.1689 122.042 49.3469C119.931 48.5254 117.884 47.8526 117.492 47.8515C117.101 47.851 115.927 47.4234 114.883 46.9015C113.839 46.3796 109.766 44.4577 105.83 42.6309C101.895 40.8036 97.8336 38.7635 96.805 38.0965C95.7764 37.4298 94.6701 36.8843 94.3463 36.8843C94.0234 36.8843 93.3272 36.5116 92.8005 36.0565C92.2735 35.6008 91.3966 34.9844 90.8518 34.6856C88.2546 33.2628 80.4023 27.9823 78.5419 26.4072C77.3939 25.4357 75.3977 23.9769 74.106 23.1659C71.2289 21.3596 51.8502 3.23685 50.9844 1.54265C50.6415 0.871753 50.1259 0.253717 49.8389 0.169482C49.5519 0.0852464 47.8209 0.853818 45.9917 1.87711Z" fill="#FF1979"></path> </svg> 